<?xml version="1.0" encoding="UTF-8"?>
<svg xmlns="http://www.w3.org/2000/svg" xmlns:xlink="http://www.w3.org/1999/xlink">
<g viewBox="0 0 24 24" xmlns="http://www.w3.org/2000/svg">
    <path d="M6.813 22.326c.184-.04.362-.127.511-.262L22.184 8.7c.46-.404.496-1.107.086-1.561l-3.714-4.123a1.11 1.11 0 00-1.567-.08L2.125 16.301a1.103 1.103 0 00-.081 1.563l3.713 4.12c.275.305.68.421 1.056.342zm-.256-1.032l-3.732-4.147 2.074-1.867 2.053 2.28c.103.114.28.122.395.02l.414-.375a.28.28 0 00.02-.395l-2.053-2.28 1.66-1.491 1.307 1.449a.28.28 0 00.395.02l.414-.375a.28.28 0 00.02-.395L8.217 12.29l1.66-1.492 2.053 2.28a.28.28 0 00.394.02l.415-.375a.28.28 0 00.02-.395l-2.055-2.271 1.66-1.492 1.307 1.449a.28.28 0 00.394.02l.415-.375a.28.28 0 00.02-.395l-1.307-1.449 1.66-1.492 2.052 2.28c.103.114.28.122.395.02l.414-.375a.28.28 0 00.02-.395l-2.053-2.28 2.075-1.866 3.731 4.144-14.93 13.444z" />
  </g>
</svg>