<?xml version="1.0" encoding="UTF-8"?>
<svg xmlns="http://www.w3.org/2000/svg" xmlns:xlink="http://www.w3.org/1999/xlink">
  <symbol viewBox="0 0 167.1 189.16" id="4GIFT" xmlns="http://www.w3.org/2000/svg">
    <path d="M93.1 46.36l-83.7 88.4v-52.4H.5v-36h92.6zm73.5 0v36H158v53.2h-47.8v-89.2h56.4zM9.4 159.06h77.4v29.6H9.4zm100.8 0H158v29.6h-47.8zm-63-23.5l39.7-46.2v46.2H47.2zm96.2-107.8l-42.2 13.7H74.3l-42.2-13.7L36.2.86l43.9 29.6 2-3.8h11.5l1.9 3.7L139.4.86l4 26.9z" stroke="#000" stroke-miterlimit="10" />
  </symbol>
  <symbol viewBox="0 0 89.7 29.9" id="4gifters-logo" xmlns="http://www.w3.org/2000/svg">
    <path d="M48.5 11.6c-.8.8-1.6 1.5-2.3 2.2-.1-.2-.2-.3-.3-.4-.9-1.2-2.1-2.1-3.5-2.6-2.5-1-6-.6-8.4 1.7-2 1.9-2.7 4.3-2.5 7 .4 3.5 3 6.4 6.4 7.1 3 .7 6.2-.9 7.5-3.6.2-.5.4-1 .5-1.6v-.3h-5.4v-3c.3-.1 8.4-.1 9 0v.1c0 1.6-.1 3.1-.5 4.7-.4 1.5-1.2 2.8-2.3 3.9-2.3 2.4-5.1 3.2-8.4 3-5.1-.3-8.8-4.5-9.7-8-1.8-6.6 1.9-12 6.8-13.9 2.9-1.1 5.9-1.1 8.7.2 1 .4 1.8 1 2.6 1.7.6.5 1.2 1.2 1.8 1.8zm18.1 17.8h-3.3V7.6h10.8v3.1h-7.6v5.2h7.3V19h-7.3c.1 3.5.1 7 .1 10.4zm-43.2-8.2h-7.5c-.1-.3-.1-13.6 0-14h8.8c.1.3.1 5.1 0 5.7h-1.3v8.3zm57.9-10.5h-5c-.1-.3-.1-2.7 0-3.1h13.3v3.1h-5v18.7h-3.3V10.7zM1.4 21.1V13H0V7.2h13.4c-4 4.6-8 9.3-12 13.9zm56 8.3h-3.2V7.6h3.2c.1.3.1 21.1 0 21.8zm-36.2-25c-.2.1-.3.1-.4.2-2 .6-4 1.3-5.9 1.9-.2.1-.4.1-.6.1h-3.6c-.2 0-.3 0-.5-.1C8 5.8 6 5.1 3.9 4.5c-.1 0-.1 0-.2-.1.2-1.5.4-2.9.6-4.4 2.3 1.5 4.6 3.1 6.9 4.6.1-.2.2-.3.3-.5h1.9c.1.2.2.3.3.5 2.3-1.5 4.5-3 6.8-4.6.3 1.5.4 2.9.7 4.4zm-8.9 25H1.4v-4.7h10.9v4.7zm3.6-4.7h7.6v4.7c-.2.1-6.9.1-7.6 0v-4.7zm-3.6-10.9v7.3c-.3.1-5.2.1-6.3 0l.1-.1c2.1-2.4 4.1-4.8 6.2-7.2z" />
  </symbol>
  <symbol viewBox="0 0 40.706 40.712" id="CALENDAR" xmlns="http://www.w3.org/2000/svg">
    <g data-name="Raggruppa 22" transform="translate(-652.916 -26.381)">
      <path data-name="Linea 38" fill="none" stroke="#000" stroke-linecap="round" stroke-linejoin="round" stroke-width=".712" d="M653.272 45.632v-.013" />
      <path data-name="Tracciato 37" d="M675.339 64.268h-19.693a2.374 2.374 0 01-2.374-2.374V48.483" fill="none" stroke="#000" stroke-linecap="round" stroke-linejoin="round" stroke-width=".712" />
      <path data-name="Tracciato 38" d="M653.272 42.681v-10.54a2.374 2.374 0 012.374-2.374h33.393a2.373 2.373 0 012.373 2.374v17.287" fill="none" stroke="#000" stroke-linecap="round" stroke-linejoin="round" stroke-width=".712" />
      <path data-name="Linea 39" fill="none" stroke="#000" stroke-linecap="round" stroke-linejoin="round" stroke-width=".712" d="M682.541 36.034h8.872" />
      <path data-name="Linea 40" fill="none" stroke="#000" stroke-linecap="round" stroke-linejoin="round" stroke-width=".712" d="M653.272 36.034h26.198" />
      <path data-name="Rettangolo 68" fill="none" stroke="#000" stroke-linecap="round" stroke-linejoin="round" stroke-width=".712" d="M658.649 40.908h4.367v3.481h-4.367z" />
      <path data-name="Rettangolo 69" fill="none" stroke="#000" stroke-linecap="round" stroke-linejoin="round" stroke-width=".712" d="M666.323 40.908h4.367v3.481h-4.367z" />
      <path data-name="Rettangolo 70" fill="none" stroke="#000" stroke-linecap="round" stroke-linejoin="round" stroke-width=".712" d="M673.996 40.908h4.367v3.481h-4.367z" />
      <path data-name="Rettangolo 71" fill="none" stroke="#000" stroke-linecap="round" stroke-linejoin="round" stroke-width=".712" d="M681.67 40.908h4.367v3.481h-4.367z" />
      <path data-name="Rettangolo 72" fill="none" stroke="#000" stroke-linecap="round" stroke-linejoin="round" stroke-width=".712" d="M658.649 47.691h4.367v3.481h-4.367z" />
      <path data-name="Rettangolo 73" fill="none" stroke="#000" stroke-linecap="round" stroke-linejoin="round" stroke-width=".712" d="M666.323 47.691h4.367v3.481h-4.367z" />
      <path data-name="Tracciato 40" d="M675.078 51.173h-1.087v-3.482h4.367v.589" fill="none" stroke="#000" stroke-linecap="round" stroke-linejoin="round" stroke-width=".712" />
      <path data-name="Rettangolo 74" fill="none" stroke="#000" stroke-linecap="round" stroke-linejoin="round" stroke-width=".712" d="M658.649 54.475h4.367v3.481h-4.367z" />
      <path data-name="Rettangolo 75" fill="none" stroke="#000" stroke-linecap="round" stroke-linejoin="round" stroke-width=".712" d="M666.323 54.475h4.367v3.481h-4.367z" />
      <rect data-name="Rettangolo 76" width="2.183" height="5.792" rx=".819" transform="translate(660.833 26.738)" fill="#fff" stroke="#000" stroke-linecap="round" stroke-linejoin="round" stroke-width=".712" />
      <rect data-name="Rettangolo 77" width="2.183" height="5.792" rx=".819" transform="translate(671.251 26.738)" fill="#fff" stroke="#000" stroke-linecap="round" stroke-linejoin="round" stroke-width=".712" />
      <rect data-name="Rettangolo 78" width="2.183" height="5.792" rx=".819" transform="translate(681.67 26.738)" fill="#fff" stroke="#000" stroke-linecap="round" stroke-linejoin="round" stroke-width=".712" />
      <g data-name="Raggruppa 21" transform="translate(674.932 48.403)">
        <circle data-name="Ellisse 21" cx="9.167" cy="9.167" r="9.167" fill="#fff" />
        <circle data-name="Ellisse 22" cx="9.167" cy="9.167" r="9.167" fill="none" stroke="#000" stroke-linecap="round" stroke-linejoin="round" stroke-width=".712" />
      </g>
      <path data-name="Tracciato 41" d="M684.103 50.887v6.683h6.69" fill="none" stroke="#000" stroke-linecap="round" stroke-linejoin="round" stroke-width=".712" />
    </g>
  </symbol>
  <symbol viewBox="0 0 43.85 42.245" id="GIFT" xmlns="http://www.w3.org/2000/svg">
    <g data-name="Tracciato 189">
      <g data-name="Tracciato 197">
        <path data-name="Tracciato 243" d="M42.293 20.705H20.432l12.618-7.028a2.023 2.023 0 00.77-2.715l-1.666-2.977a2.01 2.01 0 00-2.706-.77l-5.9 3.29.668-1.285a9.353 9.353 0 00.964-3.07 5.673 5.673 0 00-1.049-4.212 5.036 5.036 0 00-6.072-1.48.413.413 0 00-.2.211.42.42 0 00.008.3.394.394 0 00.516.195 4.237 4.237 0 015.142 1.243c1.683 2.173 1.083 5.522-1.6 8.956l-.118.11-1.378.77-.93-1.657a2.828 2.828 0 00-.609-.736l-.186-.161.034-.254a10.9 10.9 0 011.26-3.408.43.43 0 00.051-.3.392.392 0 00-.71-.11 11.444 11.444 0 00-1.269 3.29l-.093.406-.406-.068a2.67 2.67 0 00-1.708.3l-.871.482-.068-.66a11.006 11.006 0 011.125-6 .4.4 0 00-.118-.55.389.389 0 00-.533.144 12.213 12.213 0 00-1.192 7.214l.025.279-1.48.82-.22-.161c-4.009-2.977-7.933-3.6-10.5-1.683a5.068 5.068 0 00-1.684 5.893c.863 2.156 3.044 3.5 6.131 3.789l1.4.127-5.979 3.332a2.01 2.01 0 00-.77 2.706l1.666 2.985a2 2 0 002.706.761l6-3.341v14.081a2.485 2.485 0 002.469 2.478h27.4a2.492 2.492 0 002.478-2.478V22.261a1.557 1.557 0 00-1.555-1.556zm-21.438-7.823l8.964-5a1.346 1.346 0 01.6-.152 1.223 1.223 0 011.066.626l1.666 2.985a1.23 1.23 0 01-.474 1.657l-9.032 5.023-.034-.051-2.808-5.066zm-.693.465l2.816 5.066-.059.025-4.026 2.241a.724.724 0 00-.254.135l-3.814 2.131-.025-.051-2.825-5.057.051-.034 8.1-4.508zm-3.932-3.121a1.887 1.887 0 012.579.719l-.042.051.059-.034.93 1.649-.059.034-8.093 4.516-.939-1.666a1.955 1.955 0 01-.237-1.066 3.033 3.033 0 01.076-.381 1.907 1.907 0 01.9-1.142zm-8.465 8.169c-3.4 0-5.835-1.218-6.689-3.357a4.29 4.29 0 011.421-5c2.156-1.624 5.421-1.167 8.947 1.252l.575.389-.989.558a2.607 2.607 0 00-1.142 1.268l-.161.355-.372-.11a16.212 16.212 0 00-3.349-.668.447.447 0 00-.3.076.472.472 0 00-.144.271.4.4 0 00.338.423 14.932 14.932 0 013.484.719l.262.076.034.271a2.545 2.545 0 00.313.956l.93 1.666-1.438.761a16.713 16.713 0 01-1.722.095zm-2.639 9.962a1.233 1.233 0 01-.575.144h-.017a1.219 1.219 0 01-1.057-.617l-1.666-2.977a1.224 1.224 0 01.448-1.658l.017-.008 9.024-5.032 2.857 5.114-.059.025zm26.081 13.117h-7.053v-8.432a.389.389 0 00-.778 0v8.432h-9.4a1.713 1.713 0 01-1.708-1.7V25.255l6.782-3.78h4.322v7.687a.392.392 0 00.389.381h.008a.364.364 0 00.262-.1.379.379 0 00.118-.271v-7.7h7.053zm11.874-1.708a1.709 1.709 0 01-1.708 1.708h-9.4v-20h10.326a.782.782 0 01.786.77z" />
      </g>
    </g>
  </symbol>
  <symbol viewBox="0 0 40 44.495" id="PLAY" xmlns="http://www.w3.org/2000/svg">
    <g data-name="Raggruppa 281">
      <g data-name="Union 47">
        <path data-name="Path 185" d="M0 4.927v34.382a4.958 4.958 0 007.477 4.485l29.907-17.44a4.736 4.736 0 000-8.471L7.477.443C3.988-1.052 0 1.439 0 4.927z" fill="#fff" />
      </g>
    </g>
  </symbol>
  <symbol viewBox="0 0 44.166 40.733" id="TEAM" xmlns="http://www.w3.org/2000/svg">
    <g data-name="Raggruppa 26" fill="#fff" stroke="#000" stroke-width=".733">
      <g data-name="Raggruppa 23" transform="translate(.368 .37)">
        <path data-name="Tracciato 42" d="M2.418 35.066v1.308a3.626 3.626 0 003.627 3.625h5a3.619 3.619 0 001.677-.409" stroke-linecap="round" stroke-linejoin="round" />
        <path data-name="Tracciato 43" d="M.001 22.021v4.037a3.721 3.721 0 00.276 1.565 2.675 2.675 0 002.141 1.089v2.347" stroke-linecap="round" stroke-linejoin="round" />
        <path data-name="Tracciato 44" d="M10.462 11.872H3.63a3.626 3.626 0 00-3.625 3.627v1.424" stroke-linecap="round" stroke-linejoin="round" />
        <circle data-name="Ellisse 23" cx="4.175" cy="4.175" r="4.175" transform="translate(4.368)" stroke-miterlimit="10" />
      </g>
      <g data-name="Raggruppa 24" transform="translate(31.079 .367)">
        <path data-name="Tracciato 45" d="M12.717 24.163v2.807a3.721 3.721 0 01-.276 1.565 2.675 2.675 0 01-2.141 1.089v6.747a3.626 3.626 0 01-3.627 3.627h-5a3.618 3.618 0 01-1.677-.409" stroke-linecap="round" stroke-linejoin="round" />
        <path data-name="Linea 41" stroke-linecap="round" stroke-linejoin="round" d="M12.718 20.017v.011" />
        <path data-name="Tracciato 46" d="M2.256 11.863h6.836a3.626 3.626 0 013.625 3.627v1.175" stroke-linecap="round" stroke-linejoin="round" />
        <circle data-name="Ellisse 24" cx="4.175" cy="4.175" r="4.175" transform="translate(.001)" stroke-miterlimit="10" />
      </g>
      <g data-name="Raggruppa 25" transform="translate(13.585 .367)">
        <path data-name="Tracciato 47" d="M11.041 39.998h-5a3.865 3.865 0 01-3.627-4.067v-7.565S.675 28.32.238 27.145a6.411 6.411 0 01-.241-1.755V14.866a3.865 3.865 0 013.627-4.067h9.832a3.866 3.866 0 013.627 4.067v10.523a4.648 4.648 0 01-.277 1.755 2.563 2.563 0 01-2.141 1.221v7.568a3.864 3.864 0 01-3.624 4.065z" stroke-linecap="round" stroke-linejoin="round" />
        <circle data-name="Ellisse 25" cx="4.175" cy="4.175" r="4.175" transform="translate(4.367)" stroke-miterlimit="10" />
      </g>
    </g>
  </symbol>
  <symbol viewBox="0 0 16 16" id="account" xmlns="http://www.w3.org/2000/svg">
    <path fill-rule="evenodd" d="M8 8.833c2.07 0 3.75-1.68 3.75-3.75 0-2.07-1.68-3.75-3.75-3.75-2.07 0-3.75 1.68-3.75 3.75 0 2.07 1.68 3.75 3.75 3.75zM8 8a2.918 2.918 0 01-2.917-2.917 2.918 2.918 0 015.834 0A2.919 2.919 0 018 8zm5.833 6.667a.833.833 0 00.834-.834V13a3.334 3.334 0 00-3.334-3.333c-2.406 0-1.849.416-3.333.416-1.48 0-.93-.416-3.333-.416A3.334 3.334 0 001.333 13v.833c0 .461.373.834.834.834h11.666zm0-.834H2.167V13c0-1.378 1.122-2.5 2.5-2.5 2.213 0 1.752.417 3.333.417 1.586 0 1.117-.417 3.333-.417 1.378 0 2.5 1.122 2.5 2.5v.833z" />
  </symbol>
  <symbol viewBox="0 0 165.5 106" id="addtocart-sticky" xmlns="http://www.w3.org/2000/svg">
    <path d="M150.7 0h-139c-1 0-2.1.1-3.1.3-1 .2-2 .5-3 1-.9.4-1.8 1.1-2.5 1.8S1.7 4.7 1.3 5.6c-.5.9-.8 1.9-1 3-.2 1-.2 2.1-.3 3.1v82.5c0 1 .1 2.1.3 3.1.2 1 .5 2 1 3 .5.9 1.1 1.8 1.8 2.5s1.6 1.4 2.5 1.8c.9.5 1.9.8 3 1 1 .2 2.1.2 3.1.3h142.1c1 0 2.1-.1 3.1-.3 1-.2 2-.5 3-1 .9-.5 1.8-1.1 2.5-1.8s1.4-1.6 1.8-2.5c.5-.9.8-1.9 1-3 .2-1 .2-2.1.3-3.1V11.7c0-1-.1-2.1-.3-3.1-.2-1-.5-2-1-3-.5-.9-1.1-1.8-1.8-2.5s-1.6-1.4-2.5-1.8c-.9-.5-1.9-.8-3-1-1-.2-2.1-.2-3.1-.3h-3.1z" />
    <path d="M150.7 3.5h3.1c.8 0 1.7.1 2.6.2.8.1 1.4.3 2 .6.6.3 1.1.7 1.6 1.2s.9 1 1.2 1.6c.3.6.5 1.2.6 2 .2.9.2 1.8.2 2.6v82.5c0 .8-.1 1.7-.2 2.6-.1.7-.3 1.4-.6 2-.3.6-.7 1.1-1.2 1.6s-1 .9-1.6 1.2c-.6.3-1.2.5-2 .6-.9.2-1.8.2-2.6.2H11.7c-.7 0-1.7-.1-2.6-.2-.7-.1-1.4-.3-2-.7-.6-.3-1.1-.7-1.6-1.2s-.9-1-1.2-1.6c-.3-.6-.5-1.2-.6-2-.2-.9-.2-1.8-.2-2.6V11.7c0-.8.1-1.7.2-2.6.1-.7.3-1.4.6-2 .3-.6.7-1.1 1.2-1.6s1-.9 1.6-1.2c.6-.3 1.2-.5 2-.6.9-.2 1.8-.2 2.6-.2h139" fill="#fff" />
    <path d="M102.4 87.8c6 0 10.9-4.9 10.9-10.9V35.6h-13.1c0-9.6-7.8-17.4-17.4-17.4-9.6 0-17.4 7.8-17.4 17.4H52.3V77c0 6 4.9 10.9 10.9 10.9 0-.1 39.2-.1 39.2-.1zm-6.6-52.2H69.7c0-7.2 5.9-13.1 13.1-13.1s13 5.8 13 13.1zm6.6 47.9H63.2c-3.6 0-6.5-2.9-6.5-6.5V40h8.7v6.5c0 1.2 1 2.2 2.2 2.2 1.2 0 2.2-1 2.2-2.2V40h26.1v6.5c0 1.2 1 2.2 2.2 2.2s2.2-1 2.2-2.2V40h8.7v37c-.1 3.6-3 6.5-6.6 6.5z" fill-rule="evenodd" clip-rule="evenodd" />
  </symbol>
  <symbol viewBox="0 0 62 38" id="americanexpress-light-large" xmlns="http://www.w3.org/2000/svg">
    <g fill="none">
      <rect width="61" height="38" fill="#DFE3E8" rx="4" />
      <g fill="#296DB6">
        <path d="M4.639 12.517l.686 1.567h-2.3l.699-1.567.457-1.045z" />
        <path d="M29.7 11.519h-2.01v1.474h2.01c.227.031.457-.032.629-.174s.267-.348.261-.563a.725.725 0 00-.27-.552.843.843 0 00-.62-.184zm0 0h-2.01v1.474h2.01c.227.031.457-.032.629-.174s.267-.348.261-.563a.725.725 0 00-.27-.552.843.843 0 00-.62-.184zm0 0h-2.01v1.474h2.01c.227.031.457-.032.629-.174s.267-.348.261-.563a.725.725 0 00-.27-.552.843.843 0 00-.62-.184zm15.148.998l-.369-1.045-.457 1.045-.661 1.567h2.262l-.775-1.567zm0 0l-.369-1.045-.457 1.045-.661 1.567h2.262l-.775-1.567zm-15.149-.998h-2.008v1.474H29.7c.227.031.457-.032.629-.174s.267-.348.261-.563a.725.725 0 00-.27-.552.843.843 0 00-.62-.184zm0 0h-2.008v1.474H29.7c.227.031.457-.032.629-.174s.267-.348.261-.563a.725.725 0 00-.27-.552.843.843 0 00-.62-.184zm15.149.998l-.369-1.045-.457 1.045-.661 1.567h2.262l-.775-1.567zm0 0l-.369-1.045-.457 1.045-.661 1.567h2.262l-.775-1.567zm-15.149-.998h-2.008v1.474H29.7c.227.031.457-.032.629-.174s.267-.348.261-.563a.725.725 0 00-.27-.552.843.843 0 00-.62-.184zm0 0h-2.008v1.474H29.7c.227.031.457-.032.629-.174s.267-.348.261-.563a.725.725 0 00-.27-.552.843.843 0 00-.62-.184zm15.149.998l-.369-1.045-.457 1.045-.661 1.567h2.262l-.775-1.567zm0 0l-.369-1.045-.457 1.045-.661 1.567h2.262l-.775-1.567zm-15.149-.998h-2.008v1.474H29.7c.227.031.457-.032.629-.174s.267-.348.261-.563a.725.725 0 00-.27-.552.843.843 0 00-.62-.184zm0 0h-2.008v1.474H29.7c.227.031.457-.032.629-.174s.267-.348.261-.563a.725.725 0 00-.27-.552.843.843 0 00-.62-.184zm15.149.998l-.369-1.045-.457 1.045-.661 1.567h2.262l-.775-1.567zm0 0l-.369-1.045-.457 1.045-.661 1.567h2.262l-.775-1.567zm-15.149-.998h-2.008v1.474H29.7c.227.031.457-.032.629-.174s.267-.348.261-.563a.725.725 0 00-.27-.552.843.843 0 00-.62-.184zm0 0h-2.008v1.474H29.7c.227.031.457-.032.629-.174s.267-.348.261-.563a.725.725 0 00-.27-.552.843.843 0 00-.62-.184zm15.149.998l-.369-1.045-.457 1.045-.661 1.567h2.262l-.775-1.567zm0 0l-.369-1.045-.457 1.045-.661 1.567h2.262l-.775-1.567zm-15.149-.998h-2.008v1.474H29.7c.227.031.457-.032.629-.174s.267-.348.261-.563a.725.725 0 00-.27-.552.843.843 0 00-.62-.184zm23.282-2.921v1.971l-1.36-1.971h-3.99v2.494L46.36 8.598h-6.786a5.16 5.16 0 00-3.177.974v-.974H13.979l-.762 2.09-.763-2.138H7.371v2.494L6.176 8.55H2.033L0 13.063v5.225h2.897l.598-1.449h1.423l.585 1.449H28.81v-1.734l1.474 1.734h6.113v-.879a5.335 5.335 0 003.075.879h3.647l.585-1.449h1.423l.623 1.449h6.227v-1.876l1.27 1.876h4.296v-9.69h-4.562zM6.494 16.792l-.61-1.354H2.542l-.61 1.401H0l3.114-6.745h2.262l3.074 6.699H6.494zm11.183 0H16v-5.415l-.33 1.021-1.69 4.394h-1.551l-1.627-4.394-.356-1.021v5.415H8.781v-6.699h2.809l1.398 3.872.229.736.228-.737 1.424-3.87h2.808v6.697zm7.104-5.273h-4.028v1.188h3.927v1.425h-3.927v1.187h4.028v1.425h-5.718v-6.65h5.718v1.425zm5.833 5.273l-2.134-2.375h-.788v2.375h-1.766v-6.699h3.927c.647-.08 1.3.108 1.788.514s.763.99.754 1.6c.027 1.07-.82 1.986-1.958 2.114l2.39 2.47h-2.212zm4.308 0h-1.74v-6.699h1.74v6.7zm4.448 0h-.101a3.298 3.298 0 01-2.485-.928 2.85 2.85 0 01-.845-2.373v-.096a2.916 2.916 0 01.91-2.398 3.37 3.37 0 012.547-.903h2.02v1.449h-1.893a1.848 1.848 0 00-1.387.524 1.596 1.596 0 00-.469 1.328v.096c-.068.489.1.981.458 1.344.358.362.87.557 1.398.532h.546l-.699 1.425zm7.346 0l-.61-1.354h-3.393l-.61 1.401h-1.856l3.076-6.745h2.287l3.063 6.698h-1.957zm9.137 0H53.82l-2.656-3.729-.458-.736v4.512h-1.703v-6.745h2.11l2.542 3.563.483.76v-4.37h1.779l-.064 6.745zm-11.373-5.32l-.457 1.045-.661 1.567h2.262l-.686-1.567-.458-1.045zm-14.716 0H27.69v1.471h2.01c.227.032.457-.032.629-.174s.267-.348.261-.562a.735.735 0 00-.288-.522.84.84 0 00-.602-.167l.064-.047zm0 0H27.69v1.471h2.01c.227.032.457-.032.629-.174s.267-.348.261-.562a.735.735 0 00-.288-.522.84.84 0 00-.602-.167l.064-.047zm15.148.997l-.432-.997-.457 1.045-.661 1.567h2.262l-.712-1.615zm0 0l-.432-.997-.457 1.045-.661 1.567h2.262l-.712-1.615zm-15.212-.95h-2.008v1.474H29.7c.227.031.457-.032.629-.174s.267-.348.261-.563a.725.725 0 00-.27-.552.843.843 0 00-.62-.184zm0 0h-2.008v1.474H29.7c.227.031.457-.032.629-.174s.267-.348.261-.563a.725.725 0 00-.27-.552.843.843 0 00-.62-.184zm15.149.998l-.369-1.045-.457 1.045-.661 1.567h2.262l-.775-1.567zm0 0l-.369-1.045-.457 1.045-.661 1.567h2.262l-.775-1.567zM29.7 11.519h-2.008v1.474H29.7c.227.031.457-.032.629-.174s.267-.348.261-.563a.725.725 0 00-.27-.552.843.843 0 00-.62-.184zm0 0h-2.008v1.474H29.7c.227.031.457-.032.629-.174s.267-.348.261-.563a.725.725 0 00-.27-.552.843.843 0 00-.62-.184zm15.149.998l-.369-1.045-.457 1.045-.661 1.567h2.262l-.775-1.567zm0 0l-.369-1.045-.457 1.045-.661 1.567h2.262l-.775-1.567zM29.7 11.519h-2.008v1.474H29.7c.227.031.457-.032.629-.174s.267-.348.261-.563a.725.725 0 00-.27-.552.843.843 0 00-.62-.184zm0 0h-2.008v1.474H29.7c.227.031.457-.032.629-.174s.267-.348.261-.563a.725.725 0 00-.27-.552.843.843 0 00-.62-.184zm15.149.998l-.369-1.045-.457 1.045-.661 1.567h2.262l-.775-1.567zm0 0l-.369-1.045-.457 1.045-.661 1.567h2.262l-.775-1.567zM29.7 11.519h-2.008v1.474H29.7c.227.031.457-.032.629-.174s.267-.348.261-.563a.725.725 0 00-.27-.552.843.843 0 00-.62-.184zm0 0h-2.008v1.474H29.7c.227.031.457-.032.629-.174s.267-.348.261-.563a.725.725 0 00-.27-.552.843.843 0 00-.62-.184zm0 0h-2.008v1.474H29.7c.227.031.457-.032.629-.174s.267-.348.261-.563a.725.725 0 00-.27-.552.843.843 0 00-.62-.184zm0 0h-2.008v1.474H29.7c.227.031.457-.032.629-.174s.267-.348.261-.563a.725.725 0 00-.27-.552.843.843 0 00-.62-.184zm0 0h-2.008v1.474H29.7c.227.031.457-.032.629-.174s.267-.348.261-.563a.725.725 0 00-.27-.552.843.843 0 00-.62-.184zm1.194 12.659h-2.059v1.639h2.059c.484 0 .877-.367.877-.82 0-.452-.393-.819-.877-.819zm0 0h-2.059v1.639h2.059c.484 0 .877-.367.877-.82 0-.452-.393-.819-.877-.819zm0 0h-2.059v1.639h2.059c.484 0 .877-.367.877-.82 0-.452-.393-.819-.877-.819zm7.307 0h-2.008v1.472h2.008c.227.032.457-.032.629-.174s.267-.348.26-.562a.71.71 0 00-.265-.557.827.827 0 00-.624-.179zm0 0h-2.008v1.472h2.008c.227.032.457-.032.629-.174s.267-.348.26-.562a.71.71 0 00-.265-.557.827.827 0 00-.624-.179zm-7.307 0h-2.059v1.639h2.059c.484 0 .877-.367.877-.82 0-.452-.393-.819-.877-.819zm0 0h-2.059v1.639h2.059c.484 0 .877-.367.877-.82 0-.452-.393-.819-.877-.819zm7.307 0h-2.008v1.472h2.008c.227.032.457-.032.629-.174s.267-.348.26-.562a.71.71 0 00-.265-.557.827.827 0 00-.624-.179zm22.113 0h-3.127a.669.669 0 00-.666.257.573.573 0 000 .674.67.67 0 00.666.256h1.665c.88-.084 1.718.365 2.084 1.117v-3.681l-.622 1.377zm-22.113 0h-2.008v1.472h2.008c.227.032.457-.032.629-.174s.267-.348.26-.562a.71.71 0 00-.265-.557.827.827 0 00-.624-.179zm-7.307 0h-2.059v1.639h2.059c.484 0 .877-.367.877-.82 0-.452-.393-.819-.877-.819zm26.382-1.425H61v-1.496H23.968l-1.093 1.425-1.067-1.425H11.285v9.69h10.497l1.093-1.449 1.067 1.449h6.418v-2.185h.712a6.66 6.66 0 001.906-.262v2.447h4.36v-1.734l1.473 1.734h19.85a4.489 4.489 0 002.314-.594v-2.256c-.357.886-1.304 1.44-2.313 1.354h-3.648v-1.426h3.673a.668.668 0 00.666-.256.573.573 0 000-.674.669.669 0 00-.666-.257h-1.64a2.087 2.087 0 01-1.614-.494 1.802 1.802 0 01-.622-1.477c-.019-.6.242-1.178.715-1.584a2.31 2.31 0 011.75-.53zm-38.582 1.425h-4.029v1.187h3.953v1.402h-3.953v1.187h4.029v1.425h-5.757v-6.626h5.757v1.425zm5.91 5.272l-1.73-2.137-1.792 2.137h-2.02l2.795-3.325-2.884-3.348h2.16l1.741 2.09 1.754-2.114h2.11l-2.847 3.373 2.897 3.372-2.186-.047zm6.354-2.208h-2.16v2.209h-1.704v-6.698h3.952a2.406 2.406 0 011.82.571c.488.43.752 1.036.722 1.662a2.126 2.126 0 01-.747 1.678 2.457 2.457 0 01-1.845.578h-.038zm8.12 2.209l-2.135-2.376h-.788v2.375h-1.69v-6.697h3.889c.808-.09 1.606.231 2.092.84.487.61.589 1.416.267 2.115-.321.698-1.017 1.183-1.825 1.273l2.401 2.47h-2.21zm8.362-5.273h-3.99v1.187h3.927v1.402H43.45v1.187h4.028v1.425h-5.782v-6.626h5.782l-.038 1.425zm4.664 5.272h-3.71v-1.425h3.71a.67.67 0 00.667-.256.577.577 0 000-.674.67.67 0 00-.667-.257h-1.677a2.09 2.09 0 01-1.615-.494 1.802 1.802 0 01-.622-1.477 2.005 2.005 0 01.725-1.568c.472-.4 1.107-.59 1.74-.522h3.724l-.686 1.425h-3.088a.669.669 0 00-.667.257.572.572 0 000 .673c.146.204.41.306.667.257h1.664a2.06 2.06 0 011.604.47c.433.372.665.905.633 1.454.02.591-.23 1.163-.689 1.571a2.32 2.32 0 01-1.713.566zm-13.903-5.272h-2.008v1.472h2.008c.227.032.457-.032.629-.174s.267-.348.26-.562a.71.71 0 00-.265-.557.827.827 0 00-.624-.179zm-7.307 0h-2.059v1.639h2.059c.484 0 .877-.367.877-.82 0-.452-.393-.819-.877-.819zm0 0h-2.059v1.639h2.059c.484 0 .877-.367.877-.82 0-.452-.393-.819-.877-.819zm7.307 0h-2.008v1.472h2.008c.227.032.457-.032.629-.174s.267-.348.26-.562a.71.71 0 00-.265-.557.827.827 0 00-.624-.179zm0 0h-2.008v1.472h2.008c.227.032.457-.032.629-.174s.267-.348.26-.562a.71.71 0 00-.265-.557.827.827 0 00-.624-.179zm-7.307 0h-2.059v1.639h2.059c.484 0 .877-.367.877-.82 0-.452-.393-.819-.877-.819zm0 0h-2.059v1.639h2.059c.484 0 .877-.367.877-.82 0-.452-.393-.819-.877-.819zm7.307 0h-2.008v1.472h2.008c.227.032.457-.032.629-.174s.267-.348.26-.562a.71.71 0 00-.265-.557.827.827 0 00-.624-.179zm0 0h-2.008v1.472h2.008c.227.032.457-.032.629-.174s.267-.348.26-.562a.71.71 0 00-.265-.557.827.827 0 00-.624-.179zm-7.307 0h-2.059v1.639h2.059c.484 0 .877-.367.877-.82 0-.452-.393-.819-.877-.819z" />
      </g>
    </g>
  </symbol>
  <symbol viewBox="0 0 165.521 105.965" id="applepay-sticky" xmlns="http://www.w3.org/2000/svg">
    <path d="M150.698 0H14.823c-.566 0-1.133 0-1.698.003-.477.004-.953.009-1.43.022-1.039.028-2.087.09-3.113.274a10.51 10.51 0 00-2.958.975 9.932 9.932 0 00-4.35 4.35 10.463 10.463 0 00-.975 2.96C.113 9.611.052 10.658.024 11.696a68.19 68.19 0 00-.022 1.43C0 13.69 0 14.256 0 14.823v76.318c0 .567 0 1.132.002 1.699.003.476.009.953.022 1.43.028 1.036.09 2.084.275 3.11a10.46 10.46 0 00.974 2.96 9.897 9.897 0 001.83 2.52 9.874 9.874 0 002.52 1.83c.947.483 1.917.79 2.96.977 1.025.183 2.073.245 3.112.273.477.011.953.018 1.43.02.565.004 1.132.004 1.698.004h135.875c.565 0 1.132 0 1.697-.004a79.71 79.71 0 001.431-.02c1.037-.028 2.085-.09 3.113-.273a10.478 10.478 0 002.958-.977 9.955 9.955 0 004.35-4.35c.483-.947.789-1.917.974-2.96.186-1.026.246-2.074.274-3.11.013-.477.02-.954.022-1.43.004-.567.004-1.132.004-1.699V14.824c0-.567 0-1.133-.004-1.699a63.067 63.067 0 00-.022-1.429c-.028-1.038-.088-2.085-.274-3.112a10.4 10.4 0 00-.974-2.96 9.941 9.941 0 00-4.35-4.35A10.52 10.52 0 00156.939.3c-1.028-.185-2.076-.246-3.113-.274a71.413 71.413 0 00-1.431-.022C151.83 0 151.263 0 150.698 0z" />
    <path fill="#FFF" d="M150.698 3.532l1.672.003c.452.003.905.008 1.36.02.792.022 1.719.065 2.583.22.75.135 1.38.34 1.984.648a6.392 6.392 0 012.804 2.807c.306.6.51 1.226.645 1.983.154.854.197 1.783.218 2.58.013.45.019.9.02 1.36.005.557.005 1.113.005 1.671v76.318c0 .558 0 1.114-.004 1.682-.002.45-.008.9-.02 1.35-.022.796-.065 1.725-.221 2.589a6.855 6.855 0 01-.645 1.975 6.397 6.397 0 01-2.808 2.807c-.6.306-1.228.512-1.971.645-.882.157-1.847.2-2.574.22-.457.01-.912.017-1.379.019-.555.004-1.113.004-1.669.004H14.801c-.55 0-1.1 0-1.66-.004a75.086 75.086 0 01-1.35-.018c-.744-.02-1.71-.064-2.584-.22a6.938 6.938 0 01-1.986-.65 6.337 6.337 0 01-1.622-1.18 6.355 6.355 0 01-1.178-1.623 6.935 6.935 0 01-.647-1.985c-.155-.863-.198-1.788-.22-2.578a66.017 66.017 0 01-.02-1.355l-.002-1.327V14.474l.002-1.325c.003-.453.008-.905.02-1.357.022-.792.065-1.717.222-2.587a6.924 6.924 0 01.646-1.981c.304-.598.7-1.144 1.18-1.622a6.385 6.385 0 011.624-1.18 6.96 6.96 0 011.98-.647c.865-.155 1.792-.198 2.586-.22a68.26 68.26 0 011.354-.02l1.677-.003h135.875" />
    <path d="M45.186 35.64c1.417-1.772 2.38-4.152 2.126-6.585-2.075.104-4.607 1.37-6.073 3.143-1.316 1.52-2.48 4-2.177 6.33 2.33.202 4.656-1.165 6.124-2.887m2.099 3.342c-3.382-.202-6.258 1.919-7.873 1.919-1.616 0-4.09-1.818-6.764-1.769-3.482.051-6.713 2.02-8.48 5.15-3.634 6.264-.959 15.556 2.575 20.657 1.717 2.524 3.785 5.303 6.51 5.203 2.575-.101 3.584-1.668 6.714-1.668 3.128 0 4.037 1.668 6.763 1.617 2.827-.05 4.594-2.525 6.31-5.051 1.969-2.877 2.775-5.655 2.825-5.808-.05-.05-5.45-2.122-5.5-8.333-.051-5.201 4.24-7.675 4.441-7.828-2.423-3.584-6.209-3.988-7.52-4.09m29.448-7.038c7.35 0 12.47 5.067 12.47 12.444 0 7.404-5.225 12.497-12.654 12.497h-8.14v12.943h-5.88V31.944h14.204zM68.41 51.949h6.747c5.12 0 8.034-2.756 8.034-7.534 0-4.778-2.914-7.509-8.008-7.509H68.41V51.95zm22.33 10.03c0-4.831 3.702-7.798 10.266-8.166l7.56-.446v-2.126c0-3.072-2.074-4.91-5.539-4.91-3.282 0-5.33 1.575-5.828 4.043h-5.356c.315-4.988 4.568-8.664 11.394-8.664 6.695 0 10.974 3.545 10.974 9.084v19.034h-5.435v-4.542h-.13c-1.602 3.072-5.094 5.015-8.717 5.015-5.408 0-9.189-3.36-9.189-8.322zm17.826-2.494v-2.18l-6.8.42c-3.386.237-5.303 1.733-5.303 4.096 0 2.415 1.996 3.99 5.041 3.99 3.964 0 7.062-2.73 7.062-6.326zm10.776 20.504v-4.595c.419.105 1.364.105 1.837.105 2.625 0 4.043-1.102 4.909-3.938 0-.052.5-1.68.5-1.706l-9.977-27.646h6.143l6.984 22.474h.104l6.985-22.474h5.985l-10.344 29.063c-2.362 6.695-5.093 8.848-10.816 8.848-.473 0-1.891-.053-2.31-.131z" />
  </symbol>
  <symbol viewBox="0 0 24 25" id="arrow-dx" xmlns="http://www.w3.org/2000/svg">
    <path fill-rule="evenodd" d="M12.379 21.782l8.48-8.48a.482.482 0 000-.681l-8.48-8.48a.483.483 0 00-.682 0l-.284.284a.483.483 0 000 .682l7.172 7.172H3.482a.482.482 0 00-.482.482v.402c0 .266.216.482.482.482h15.103l-7.172 7.172a.482.482 0 000 .681l.284.284a.481.481 0 00.682 0z" />
  </symbol>
  <symbol viewBox="0 0 24 25" id="arrow-sx" xmlns="http://www.w3.org/2000/svg">
    <path fill="#262626" fill-rule="evenodd" d="M11.621 4.218l-8.48 8.48a.482.482 0 000 .681l8.48 8.48a.483.483 0 00.682 0l.284-.284a.483.483 0 000-.682L5.415 13.72h15.103a.482.482 0 00.482-.482v-.402a.482.482 0 00-.482-.482H5.415l7.172-7.172a.482.482 0 000-.681l-.284-.284a.481.481 0 00-.682 0z" />
  </symbol>
  <symbol viewBox="0 0 60 60" id="audio-pause" xmlns="http://www.w3.org/2000/svg">
    <path d="M30 0C13.5 0 0 13.5 0 30s13.5 30 30 30 30-13.5 30-30S46.5 0 30 0zm-3 46h-8V14h8v32zm14 0h-8V14h8v32z" />
  </symbol>
  <symbol viewBox="0 0 32 32" id="audio-play" xmlns="http://www.w3.org/2000/svg">
    <path d="M16 0C7.2 0 0 7.2 0 16s7.2 16 16 16 16-7.2 16-16S24.8 0 16 0zm-6 24V8l16 8-16 8z" fill="#030104" />
  </symbol>
  <symbol fill="none" viewBox="0 0 22 18" id="boutique" xmlns="http://www.w3.org/2000/svg">
    <path fill-rule="evenodd" clip-rule="evenodd" d="M20.9 17.601c.608 0 1.1-.491 1.1-1.1v-7.7a1.1 1.1 0 00-1.1-1.1h-.938a2 2 0 00.388-1.165c0-1.049-.87-2.135-2.33-2.135-1.475 0-2.565 1.196-3.17 2.138-.608-.942-1.695-2.138-3.17-2.138-.247 0-.467.042-.68.096v-.096a1.1 1.1 0 00-1.1-1.1H7.48l1.482-1.058a.28.28 0 00.065-.386l-.32-.446a.28.28 0 00-.385-.066L6.497 2.652 7.28.565a.273.273 0 00-.162-.354L6.603.018A.272.272 0 006.25.18L5.5 2.177 4.75.18a.279.279 0 00-.353-.162L3.88.211a.279.279 0 00-.162.354l.784 2.087L2.68 1.349a.276.276 0 00-.385.065l-.32.447a.276.276 0 00.066.385L3.52 3.3H1.1A1.1 1.1 0 000 4.4v12.1c0 .609.492 1.1 1.1 1.1h19.8zm-13.2-1.1H1.1v-12.1h8.8v.756c-.354.392-.55.887-.55 1.379 0 .426.14.821.388 1.165H8.8a1.1 1.1 0 00-1.1 1.1v7.7zm6.548-8.8h-1.976c-.753 0-1.183-.213-1.413-.392-.268-.206-.409-.474-.409-.773 0-.509.46-1.035 1.23-1.035 1.293 0 2.27 1.578 2.568 2.2zm3.18 0h-1.976c.299-.622 1.275-2.2 2.567-2.2.77 0 1.231.526 1.231 1.035 0 .299-.14.567-.41.773-.23.18-.659.392-1.412.392zm-3.128 4.4H8.8v-3.3h5.5v3.3zm6.6 0h-5.5v-3.3h5.5v3.3zm-6.6 4.4H8.8v-3.3h5.5v3.3zm6.6 0h-5.5v-3.3h5.5v3.3z" fill="#262626" />
  </symbol>
  <symbol viewBox="0 0 16 16" id="cart" xmlns="http://www.w3.org/2000/svg">
    <path fill-rule="evenodd" d="M11.857 15.048c1.184 0 2.143-.96 2.143-2.143V4.762h-2.571A3.433 3.433 0 008 1.333a3.433 3.433 0 00-3.429 3.429H2v8.143c0 1.183.96 2.143 2.143 2.143h7.714zM10.571 4.762H5.43A2.573 2.573 0 018 2.19a2.574 2.574 0 012.571 2.572zm1.286 9.428H4.143c-.71 0-1.286-.576-1.286-1.285V5.619h1.714v1.286a.429.429 0 00.858 0V5.619h5.142v1.286a.429.429 0 00.858 0V5.619h1.714v7.286c0 .709-.577 1.285-1.286 1.285z" />
  </symbol>
  <symbol viewBox="0 0 16 16" id="chat" xmlns="http://www.w3.org/2000/svg">
    <path fill="#FFF" fill-rule="evenodd" d="M6.031 14a.269.269 0 00.167-.056l2.927-2.194H12.5c.827 0 1.5-.673 1.5-1.5V3.5c0-.827-.673-1.5-1.5-1.5h-9C2.673 2 2 2.673 2 3.5v6.75c0 .827.673 1.5 1.5 1.5h2.25v1.969a.28.28 0 00.281.281zm.469-1.219V11h-3a.753.753 0 01-.75-.75V3.5c0-.412.338-.75.75-.75h9c.412 0 .75.338.75.75v6.75c0 .412-.338.75-.75.75H8.874l-.199.15L6.5 12.781zM5 7.437a.56.56 0 00.562-.562.562.562 0 10-.562.562zm3 0a.56.56 0 00.562-.562.562.562 0 10-.562.562zm3 0a.56.56 0 00.562-.562.562.562 0 10-.562.562z" />
  </symbol>
  <symbol viewBox="0 0 16 16" id="chat-light" xmlns="http://www.w3.org/2000/svg">
    <path fill="#FFF" fill-rule="evenodd" d="M6.031 14a.269.269 0 00.167-.056l2.927-2.194H12.5c.827 0 1.5-.673 1.5-1.5V3.5c0-.827-.673-1.5-1.5-1.5h-9C2.673 2 2 2.673 2 3.5v6.75c0 .827.673 1.5 1.5 1.5h2.25v1.969a.28.28 0 00.281.281zm.469-1.219V11h-3a.753.753 0 01-.75-.75V3.5c0-.412.338-.75.75-.75h9c.412 0 .75.338.75.75v6.75c0 .412-.338.75-.75.75H8.874l-.199.15L6.5 12.781zM5 7.437a.56.56 0 00.562-.562.562.562 0 10-.562.562zm3 0a.56.56 0 00.562-.562.562.562 0 10-.562.562zm3 0a.56.56 0 00.562-.562.562.562 0 10-.562.562z" />
  </symbol>
  <symbol viewBox="0 0 24 24" id="check-circle" xmlns="http://www.w3.org/2000/svg">
    <path fill="#3E6214" fill-rule="evenodd" d="M12 2C6.477 2 2 6.477 2 12s4.477 10 10 10 10-4.477 10-10S17.523 2 12 2zm0 18.71c-4.785 0-8.71-3.873-8.71-8.71 0-4.785 3.873-8.71 8.71-8.71 4.785 0 8.71 3.873 8.71 8.71 0 4.785-3.873 8.71-8.71 8.71zm5.71-11.087l-7.277 7.219a.483.483 0 01-.684-.003l-3.463-3.491a.483.483 0 01.003-.684l.344-.341a.483.483 0 01.684.003l2.781 2.803 6.59-6.537a.485.485 0 01.685.003l.34.343a.484.484 0 01-.002.685z" />
  </symbol>
  <symbol viewBox="0 0 24 24" id="check-circle-alert" xmlns="http://www.w3.org/2000/svg">
    <path fill="#E07A0F" fill-rule="evenodd" d="M12 2C6.477 2 2 6.477 2 12s4.477 10 10 10 10-4.477 10-10S17.523 2 12 2zm0 18.71c-4.785 0-8.71-3.873-8.71-8.71 0-4.785 3.873-8.71 8.71-8.71 4.785 0 8.71 3.873 8.71 8.71 0 4.785-3.873 8.71-8.71 8.71zm5.71-11.087l-7.277 7.219a.483.483 0 01-.684-.003l-3.463-3.491a.483.483 0 01.003-.684l.344-.341a.483.483 0 01.684.003l2.781 2.803 6.59-6.537a.485.485 0 01.685.003l.34.343a.484.484 0 01-.002.685z" />
  </symbol>
  <symbol fill="none" viewBox="0 0 16 17" id="check-green" xmlns="http://www.w3.org/2000/svg">
    <g clip-path="url(#auclip0_3268_7639)">
      <path fill-rule="evenodd" clip-rule="evenodd" d="M8 .8a8 8 0 100 16 8 8 0 000-16zm4.569 6.098l-5.822 5.775a.387.387 0 01-.548-.002L3.43 9.878a.387.387 0 01.002-.547l.275-.273a.387.387 0 01.548.002l2.225 2.243 5.272-5.23a.387.387 0 01.547.003l.273.274c.15.152.15.397-.002.548z" fill="#3E6214" />
    </g>
    <defs>
      <clipPath id="auclip0_3268_7639">
        <path fill="#fff" transform="translate(0 .8)" d="M0 0h16v16H0z" />
      </clipPath>
    </defs>
  </symbol>
  <symbol fill="none" viewBox="0 0 12 12" id="check-white" xmlns="http://www.w3.org/2000/svg">
    <path fill-rule="evenodd" clip-rule="evenodd" d="M6 .167a5.833 5.833 0 100 11.666A5.833 5.833 0 006 .167zM6 11.08A5.08 5.08 0 116 .918 5.08 5.08 0 116 11.08zm3.332-6.468L5.087 8.824a.282.282 0 01-.4-.002l-2.02-2.036a.282.282 0 01.002-.399l.2-.199a.283.283 0 01.4.002L4.89 7.825l3.844-3.813c.111-.11.29-.11.4.001l.198.2c.11.111.11.29-.001.4z" fill="#fff" />
  </symbol>
  <symbol viewBox="0 0 17 16" id="checkbox" xmlns="http://www.w3.org/2000/svg">
    <path fill="#262626" fill-rule="evenodd" d="M14.667 14.667V1.333H1.333v13.334h13.334zm-.834-.834H2.167V2.167h11.666v11.666z" />
  </symbol>
  <symbol viewBox="0 0 16 16" id="checkbox-selected" xmlns="http://www.w3.org/2000/svg">
    <path fill="#262626" fill-rule="evenodd" d="M14.667 1.333v13.334H1.333V1.333h13.334zm-.834.834H2.167v11.666h11.666V2.167zM12 4v8H4V4h8z" />
  </symbol>
  <symbol viewBox="0 0 16 16" id="close-light" xmlns="http://www.w3.org/2000/svg">
    <path fill="#FFF" fill-rule="evenodd" d="M4.09 4.62l4.243 4.242 4.243-4.243.471.472-4.243 4.242 4.243 4.243-.471.471-4.243-4.243-4.242 4.243-.472-.471 4.243-4.243-4.243-4.242.472-.472z" />
  </symbol>
  <symbol viewBox="0 0 16 16" id="close-light-black" xmlns="http://www.w3.org/2000/svg">
    <path fill-rule="evenodd" d="M4.09 4.62l4.243 4.242 4.243-4.243.471.472-4.243 4.242 4.243 4.243-.471.471-4.243-4.243-4.242 4.243-.472-.471 4.243-4.243-4.243-4.242.472-.472z" />
  </symbol>
  <symbol viewBox="0 0 24 24" id="contact" xmlns="http://www.w3.org/2000/svg">
    <path fill="#262626" fill-rule="evenodd" d="M20.15 3.847l-3.544-.819a1.101 1.101 0 00-1.259.637l-1.635 3.814c-.193.447-.063.974.313 1.283l1.895 1.55a12.305 12.305 0 01-5.61 5.611L8.758 14.03a1.1 1.1 0 00-1.283-.313l-3.81 1.633a1.099 1.099 0 00-.637 1.256l.816 3.54c.116.502.559.854 1.072.854C13.783 21 21 13.821 21 4.916c0-.513-.352-.956-.85-1.069zM4.936 19.875l-.808-3.501 3.775-1.618 2.092 2.56c3.642-1.709 5.615-3.688 7.316-7.316l-2.56-2.092 1.618-3.776 3.502.809c-.008 8.244-6.69 14.923-14.935 14.934z" />
  </symbol>
  <symbol viewBox="0 0 24 24" id="delivery" xmlns="http://www.w3.org/2000/svg">
    <path fill="#262626" fill-rule="evenodd" d="M13.187 14.5c.623 0 1.125-.503 1.125-1.125V5.5c0-.622-.502-1.125-1.125-1.125H1.375C.753 4.375.25 4.878.25 5.5v7.875c0 .622.503 1.125 1.125 1.125h11.812zm0-1.125H1.375V5.5h11.812v7.875zM4.47 12.25a.283.283 0 00.281-.281V6.906a.283.283 0 00-.281-.281h-.563a.283.283 0 00-.281.281v5.063c0 .154.127.281.281.281h.563zm3.375 0a.283.283 0 00.281-.281V6.906a.283.283 0 00-.281-.281H7.28a.283.283 0 00-.281.281v5.063c0 .154.127.281.281.281h.563zm3.375 0a.283.283 0 00.281-.281V6.906a.283.283 0 00-.281-.281h-.563a.283.283 0 00-.281.281v5.063c0 .154.127.281.281.281h.563zm-4.5 7.875a2.53 2.53 0 002.531-2.531c0-.3-.06-.58-.155-.844h6.961c-.095.464-.077.97.099 1.49a2.772 2.772 0 001.954 1.797 2.819 2.819 0 003.46-3.29h.618c.31 0 .563-.254.563-.563v-4.127c0-.598-.236-1.168-.657-1.59l-2.057-2.056a2.25 2.25 0 00-1.593-.657H16a.564.564 0 00-.563.562v7.313H8.29a2.488 2.488 0 00-1.571-.563c-.802 0-1.505.38-1.969.96a2.505 2.505 0 00-1.969-.963 2.53 2.53 0 00-2.531 2.53 2.53 2.53 0 002.531 2.532c.802 0 1.505-.38 1.969-.96.464.58 1.167.96 1.969.96zm14.438-9h-4.595v-2.25h1.881c.3 0 .584.116.795.33l1.92 1.92zm-4.58 4.5h-.015V12.25h5.063v3.375h-.577a2.798 2.798 0 00-2.236-1.125c-.917 0-1.722.447-2.235 1.125zM18.812 19a1.688 1.688 0 11.002-3.376A1.688 1.688 0 0118.812 19zm-16.03 0a1.406 1.406 0 110-2.812A1.406 1.406 0 012.781 19zm3.937 0a1.407 1.407 0 110-2.814 1.407 1.407 0 010 2.814z" />
  </symbol>
  <symbol viewBox="0 0 61 38" id="dinnerclub-light-large" xmlns="http://www.w3.org/2000/svg">
    <g fill="none">
      <rect width="61" height="38" fill="#DFE3E8" rx="4" />
      <path fill="#211E1F" d="M13.267 27.313c2.936 0 3.42-1.924 3.42-2.696a2.76 2.76 0 00-1.033-2.023 3.168 3.168 0 00-2.284-.685h-2.403v.202c.368 0 .75 0 .75.665v3.74c0 .535-.255.547-.75.595v.201h2.3zm-.736-5.119c.216-.011.432-.011.648 0 .697 0 1.363.266 1.844.737.48.472.732 1.107.698 1.757.07.62-.151 1.24-.608 1.695a2.382 2.382 0 01-1.769.68c-.407 0-.864-.071-.864-.665l.05-4.204zm6.214 5.119v-.202h-.14c-.241 0-.419 0-.419-.262v-3.075a.394.394 0 00-.153 0c-.29.11-.587.205-.89.285v.118c.306.155.433.202.433.547v2.09c0 .261-.165.261-.394.261h-.165v.238h1.779-.05zm-.889-4.679c.11 0 .215-.042.292-.116a.366.366 0 00.114-.276c-.007-.205-.187-.368-.406-.368-.225 0-.407.17-.407.38s.182.38.407.38zm5.274 4.524h-.14c-.242 0-.42 0-.42-.261v-1.96c0-.593-.241-1.08-.953-1.08a2.47 2.47 0 00-1.423.582v-.582c-.357.141-.722.264-1.093.368v.154c.381.143.483.226.483.511v2.043c0 .26-.165.26-.407.26h-.14v.12h1.767v-.202h-.153c-.228 0-.406 0-.406-.262v-2.232c.278-.2.606-.331.953-.38a.71.71 0 01.55.163c.148.13.226.313.212.502v1.995c0 .261-.165.261-.394.261h-.152v.154h1.716v-.154zm1.55.321a1.967 1.967 0 001.538-.879l-.115-.107a1.644 1.644 0 01-1.118.51c-.738-.05-1.3-.638-1.27-1.33-.015-.15-.015-.3 0-.45h2.4v-.143a1.156 1.156 0 00-.416-.885 1.333 1.333 0 00-.982-.303c-.572 0-1.665.452-1.665 1.972-.017.416.146.822.452 1.126.305.303.729.48 1.175.489zm0-3.408a.72.72 0 01.527.207.63.63 0 01.185.505c0 .095 0 .19-.23.19H23.79c.102-.558.445-.902.953-.902h-.063zm1.907 3.087h-.23v.154h2.148v-.201h-.457c-.242 0-.407 0-.407-.262V25.08c.003-.326.264-.6.61-.641.292 0 .292.19.546.19a.41.41 0 00.28-.12.354.354 0 00.102-.272.402.402 0 00-.14-.303.46.46 0 00-.33-.113c-.496 0-.852.499-1.055.796v-.689c0-.083 0-.107-.077-.107-.076 0-.406.202-1.016.44v.118c.127 0 .432.107.432.345v2.173c-.013.261-.178.261-.407.261zm4.002.072c-.553-.029-.998-.435-1.042-.95h-.152l.101.878c.306.168.65.261 1.004.273.979 0 1.424-.546 1.424-1.057 0-1.187-1.92-.938-1.92-1.84.01-.15.085-.29.207-.386a.62.62 0 01.442-.125c.473-.02.875.319.902.76h.216l-.063-.784a2.287 2.287 0 00-.94-.225 1.187 1.187 0 00-.87.24c-.24.188-.386.463-.402.757 0 1.188 1.805.95 1.805 1.865a.54.54 0 01-.197.462.624.624 0 01-.515.131zm8.629-.167l.19-1.128h-.19c-.125.77-.832 1.339-1.665 1.342-1.469-.114-2.567-1.31-2.465-2.684a2.102 2.102 0 01.573-1.716 2.422 2.422 0 011.753-.742c.866-.105 1.66.462 1.779 1.27h.203l-.089-1.104a6.193 6.193 0 00-1.944-.415c-1.67-.047-3.07 1.17-3.14 2.73-.05.794.27 1.57.876 2.127a3.073 3.073 0 002.29.783 4.928 4.928 0 001.83-.463zm2.249.25v-.202h-.14c-.24 0-.419 0-.419-.262v-5.45s-.088 0-.177.083a4.999 4.999 0 01-.852.332v.131c.305.083.432.095.432.606v4.298c0 .262-.165.262-.394.262h-.165v.201h1.78-.064zm.47-2.743v1.982a.798.798 0 00.227.655.92.92 0 00.676.272 2.307 2.307 0 001.474-.653v.629a9.12 9.12 0 011.195-.25v-.13h-.267c-.14 0-.241 0-.241-.142V23.94s-.547.06-1.271.107v.142c.292.072.686.155.686.31v2.09a1.922 1.922 0 01-.991.462c-.725 0-.725-.665-.725-.89v-1.995c0-.167 0-.226-.089-.226l-1.067.06v.142c.394.035.394.226.394.427zm4.055-2.007v3.325c.002.477-.036.953-.115 1.424l.166.084.254-.178c.351.177.744.27 1.144.273 1.143-.058 2.025-.962 1.982-2.031a1.448 1.448 0 00-.4-1.119c-.29-.306-.7-.49-1.138-.508-.48.044-.928.241-1.27.558v-2.838s0-.107-.064-.107l-.19.083c-.27.14-.556.252-.852.333v.13c.356.084.483.095.483.57zm.66 2.006a1.31 1.31 0 01.789-.368c.774.142 1.317.796 1.27 1.532 0 .689-.368 1.508-1.27 1.508-.462-.018-.833-.364-.852-.795l.064-1.877zm-35.036 4.477h-.661v.166h.089c.165 0 .305 0 .318.226v2.197c0 .214-.153.226-.318.226h-.115v.201h1.373v-.154h-.038c-.165 0-.318 0-.318-.226v-2.268c0-.213.153-.225.318-.225h.089v-.166l-.737.023zm3.952 0h-.635v.166h.114c.14 0 .369 0 .381.38v1.544l-1.981-2.078h-.94v.166h.076a.396.396 0 01.277.1c.075.068.117.16.117.257v1.78c0 .333-.09.511-.394.511h-.102v.19h1.194v-.154h-.101c-.33 0-.394-.107-.407-.475v-1.745l2.288 2.375h.216v-2.376c0-.486.203-.51.381-.51h.089v-.166l-.572.035zm3.685-.154c0 .107-.101.107-.228.107h-2.351c-.115 0-.191 0-.23-.107h-.139c.007.115.007.23 0 .344v.357h.178c.076-.31.076-.369.407-.369h.711v2.233c0 .32-.101.32-.355.332h-.102v.273h1.487v-.154h-.102c-.216 0-.356 0-.356-.344v-2.292h.712c.292 0 .305.226.318.392l.165-.06v-.688h-.127l.012-.024zm2.694 2.363c-.126.475-.355.499-.889.499-.292 0-.534 0-.534-.262v-.961h.521c.305 0 .305.154.33.403h.166v-.973h-.178c0 .225-.076.344-.33.356h-.521v-1.069h.61c.457 0 .495.202.52.475h.153v-.665H19.52v.166h.077c.165 0 .305 0 .317.226v2.197c0 .214-.152.226-.317.226h-.077v.19h2.465c0-.214.102-.44.153-.665h-.14l-.05-.143zm3 .332l-.763-1.056c.362-.094.614-.398.623-.748 0-.606-.534-.76-1.093-.76H22.29v.166h.102c.14 0 .305 0 .305.297v2.137c0 .143-.14.214-.305.214h-.101v.226h1.423v-.155h-.076c-.216 0-.343 0-.356-.32v-.95h.267c.279.47.593.923.94 1.353h.432l.496.072v-.155a.467.467 0 01-.47-.32zm-.8-1.78c0 .498-.23.64-.674.64h-.204V29.26h.242a.611.611 0 01.446.142c.121.104.19.25.19.404zm4.994-.618v-.166h-1.195v.166h.114c.14 0 .369 0 .382.38v1.544l-2.008-2.079h-.94v.167h.075a.392.392 0 01.278.1.34.34 0 01.116.256v1.77c0 .344-.088.522-.393.522h-.077v.213h1.195v-.154h-.102c-.33 0-.394-.107-.394-.475v-1.745l2.275 2.375h.216v-2.376c0-.486.203-.51.381-.51h.09l-.013.012zm2.796 2.494c0-.131-.102-.285-.166-.428l-.826-2.209v-.107a1.835 1.835 0 01-.42.178c-.045.182-.105.36-.177.535l-.712 1.935a.39.39 0 01-.381.262v.213h1.029v-.154h-.076c-.14 0-.318 0-.318-.13.027-.11.06-.216.102-.321l.14-.428h.991l.178.475c.042.096.072.195.089.297 0 .083-.153.107-.267.107h-.064v.154h1.298v-.154a.296.296 0 01-.28 0 .258.258 0 01-.14-.226zm-1.043-.998h-.788l.394-1.128.394 1.128zm4.003-1.793c0 .107-.101.107-.228.107H32.33c-.114 0-.203 0-.228-.107h-.153c.013.114.013.23 0 .344v.368h.178c.064-.308.064-.368.394-.368h.724v2.233c0 .32-.114.32-.355.332h-.115v.262h1.5v-.155h-.102c-.216 0-.356 0-.356-.344v-2.292h.725c.28 0 .292.226.305.392l.165-.06a2.82 2.82 0 010-.344v-.344h-.127l.012-.024zm.966.154h-.673v.166h.076c.165 0 .318 0 .318.226v2.197c0 .214-.153.226-.318.226h-.076v.201h1.372v-.154h-.089c-.165 0-.305 0-.305-.226v-2.268c0-.213.14-.225.305-.225h.09v-.166l-.7.023zm2.491-.083a1.726 1.726 0 00-1.19.456c-.315.294-.49.695-.487 1.112-.008.419.17.822.494 1.112.323.29.76.443 1.208.42.465.013.915-.154 1.243-.463a1.51 1.51 0 00.486-1.164 1.455 1.455 0 00-.531-1.096 1.674 1.674 0 00-1.223-.377zm0 .226c.724 0 1.08.724 1.08 1.342 0 .617-.152 1.306-1.004 1.306-.851 0-1.08-.7-1.08-1.449 0-.558.229-1.2 1.004-1.2zm5.49 0v-.166h-1.182v.166h.115c.127 0 .368 0 .368.38v1.544l-1.982-2.079h-.928v.167h.076a.384.384 0 01.274.1c.072.068.111.16.107.256v1.781c0 .333-.089.51-.38.51h-.077v.215h1.194v-.155h-.088c-.344 0-.394-.107-.407-.475v-1.745l2.275 2.375h.203a2.224 2.224 0 010-.416v-1.96c0-.486.19-.51.381-.51h.09l-.039.012zm2.796 2.494a4.196 4.196 0 01-.165-.428l-.826-2.209v-.107a2.05 2.05 0 01-.407.178c-.046.182-.105.36-.178.535l-.724 1.935a.392.392 0 01-.369.262v.213h1.03v-.154c-.153 0-.318 0-.318-.13.02-.11.054-.218.102-.321l.14-.428h.825l.166.475c.04.096.07.196.088.297 0 .083-.152.107-.254.107h-.063v.154h1.296v-.154a.278.278 0 01-.23-.035.244.244 0 01-.113-.19zm-1.055-.998h-.788l.407-1.128.381 1.128zm3.978.558a.88.88 0 01-.14.297.663.663 0 01-.42.214h-.584c-.14 0-.254-.06-.254-.226v-2.125c0-.214.114-.214.28-.214h.14v-.166h-1.399v.166h.077c.165 0 .317 0 .317.225v2.162c0 .249-.152.26-.317.26h-.077v.227h2.377c0-.238.114-.476.165-.713h-.165v-.107zm0-2.316c-.258.007-.462.207-.458.448.005.24.217.433.475.431.258-.002.466-.198.466-.44a.415.415 0 00-.138-.318.477.477 0 00-.345-.12zm0 .76c-.21 0-.381-.159-.381-.356 0-.197.17-.356.38-.356.211 0 .382.16.382.356 0 .095-.04.185-.112.252a.393.393 0 01-.27.105z" />
      <path fill="#211E1F" d="M49.652 29.379a.133.133 0 00.114-.13c0-.084-.076-.12-.165-.12h-.241v.392h.203-.076v-.142c.089.107.127.202.178.202h.088l-.101-.107v-.095zm-.14 0v-.202a.093.093 0 01.077.023.08.08 0 01.025.072c0 .06 0 .107-.09.107h-.012z" />
      <path fill="#0779BE" d="M32.229 20.888c4.462.024 8.151-3.245 8.362-7.41-.026-2.04-.925-3.985-2.496-5.401-1.571-1.417-3.683-2.187-5.866-2.14h-3.813c-2.153-.046-4.233.734-5.756 2.16-1.522 1.423-2.353 3.368-2.3 5.38.048 4.12 3.647 7.43 8.056 7.41h3.813z" />
      <path fill="#FFF" d="M28.493 6.555c-4.043 0-7.32 3.062-7.32 6.84s3.277 6.84 7.32 6.84c4.042 0 7.32-3.062 7.32-6.84s-3.278-6.84-7.32-6.84zm-4.639 6.84c.002-1.794 1.183-3.402 2.974-4.05v8.1c-1.793-.645-2.975-2.255-2.974-4.05zm6.29 4.05v-8.1c1.798.642 2.985 2.253 2.985 4.05 0 1.797-1.187 3.408-2.984 4.05z" />
      <path fill="#0779BE" d="M32.229 20.888c4.462.024 8.151-3.245 8.362-7.41-.026-2.04-.925-3.985-2.496-5.401-1.571-1.417-3.683-2.187-5.866-2.14h-3.813c-2.153-.046-4.233.734-5.756 2.16-1.522 1.423-2.353 3.368-2.3 5.38.048 4.12 3.647 7.43 8.056 7.41h3.813z" />
      <path fill="#FFF" d="M28.493 6.555c-4.043 0-7.32 3.062-7.32 6.84s3.277 6.84 7.32 6.84c4.042 0 7.32-3.062 7.32-6.84s-3.278-6.84-7.32-6.84zm-4.639 6.84c.002-1.794 1.183-3.402 2.974-4.05v8.1c-1.793-.645-2.975-2.255-2.974-4.05zm6.29 4.05v-8.1c1.798.642 2.985 2.253 2.985 4.05 0 1.797-1.187 3.408-2.984 4.05z" />
    </g>
  </symbol>
  <symbol viewBox="0 0 24 24" id="edit" xmlns="http://www.w3.org/2000/svg">
    <path fill="#262626" fill-rule="evenodd" d="M7.253 18.746l3.47-.39L21.572 7.37c.57-.577.57-1.512 0-2.088l-1.826-1.85a1.447 1.447 0 00-2.063 0L6.834 14.42l-.386 3.512c-.052.47.34.868.805.815zM19.108 8.273L16.792 5.93l1.68-1.702a.343.343 0 01.49 0l1.826 1.85a.351.351 0 010 .495l-1.68 1.701zM15.888 21c.921 0 1.668-.756 1.668-1.688v-5.776a.207.207 0 00-.355-.147l-.694.703a.195.195 0 00-.063.147v5.073a.56.56 0 01-.555.563H3.667a.56.56 0 01-.556-.563V6.937a.56.56 0 01.556-.562h9.455a.214.214 0 00.145-.063l.695-.703c.132-.13.038-.359-.146-.359H3.666C2.747 5.25 2 6.006 2 6.937v12.375C2 20.244 2.747 21 3.667 21h12.222zm-8.28-3.424l.288-2.64 8.111-8.21 2.316 2.345-8.108 8.213-2.607.292z" />
  </symbol>
  <symbol viewBox="0 0 32 34" id="facebook" xmlns="http://www.w3.org/2000/svg">
    <path d="M16.809 29.75v-9.876H13.68v-3.847h3.129v-2.84c0-3.296 1.896-5.09 4.66-5.09 1.33 0 2.465.109 2.797.154v3.444h-1.918c-1.505 0-1.794.757-1.794 1.873v2.459h3.589l-.466 3.847h-3.118v9.87h6.118c.728 0 1.323-.626 1.323-1.406V5.656c0-.774-.595-1.406-1.329-1.406H5.323C4.595 4.25 4 4.882 4 5.656v22.688c0 .774.595 1.406 1.323 1.406H16.81z" />
  </symbol>
  <symbol viewBox="0 0 20 20" id="feed" xmlns="http://www.w3.org/2000/svg">
    <path d="M19.2.8v18.5H.8V.8h18.4M20 0H0v20h20V0z" fill="#262626" />
  </symbol>
  <symbol viewBox="0 0 20 20" id="feed-black" xmlns="http://www.w3.org/2000/svg">
    <path fill="#262626" fill-rule="evenodd" d="M20 20V0H0v20z" />
  </symbol>
  <symbol viewBox="0 0 20 20" id="feed-grey" xmlns="http://www.w3.org/2000/svg">
    <path fill="#E5E5E5" fill-rule="evenodd" d="M20 20V0H0v20z" />
  </symbol>
  <symbol viewBox="0 0 24 24" id="fill-check-circle" xmlns="http://www.w3.org/2000/svg">
    <path d="M12 2C6.477 2 2 6.477 2 12s4.477 10 10 10 10-4.477 10-10S17.523 2 12 2zm5.71 7.623l-7.277 7.219a.483.483 0 01-.684-.003l-3.463-3.491a.483.483 0 01.003-.684l.344-.341a.483.483 0 01.684.003l2.781 2.803 6.59-6.537a.485.485 0 01.685.003l.34.343a.484.484 0 01-.002.685z" />
  </symbol>
  <symbol viewBox="0 0 24 24" id="fill-close-circle" xmlns="http://www.w3.org/2000/svg">
    <path d="M12 2C6.476 2 2 6.476 2 12s4.476 10 10 10 10-4.476 10-10S17.524 2 12 2zm3.823 7.206L13.028 12l2.795 2.794c.19.19.19.496 0 .686l-.343.343a.484.484 0 01-.686 0L12 13.028l-2.794 2.795a.484.484 0 01-.686 0l-.343-.343a.484.484 0 010-.686L10.972 12 8.177 9.206a.484.484 0 010-.686l.343-.343c.19-.19.496-.19.686 0L12 10.972l2.794-2.795c.19-.19.496-.19.686 0l.343.343a.493.493 0 010 .686z" />
  </symbol>
  <symbol viewBox="0 0 24 24" id="fill-eye" xmlns="http://www.w3.org/2000/svg">
    <path d="M12 18.333c4.268 0 7.997-2.487 9.88-6.16.066-.132.12-.359.12-.506 0-.148-.054-.375-.12-.507C19.995 7.486 16.267 5 12 5c-4.268 0-7.997 2.487-9.88 6.16a1.35 1.35 0 00-.12.507c0 .148.054.375.12.507 1.884 3.674 5.612 6.16 9.88 6.16zm.002-1.666H12c-2.76 0-5-2.24-5-5s2.24-5 5-5 5 2.24 5 5v.002a5 5 0 01-4.998 4.998zm.006-1.682a3.327 3.327 0 000-6.652H12a4.026 4.026 0 00-.879.132c.179.242.323.684.323.985 0 .917-.744 1.661-1.661 1.661-.301 0-.742-.145-.985-.323a3.994 3.994 0 00-.116.871 3.327 3.327 0 003.326 3.326z" />
  </symbol>
  <symbol viewBox="0 0 24 24" id="fill-heart" xmlns="http://www.w3.org/2000/svg">
    <path d="M12.883 20.611l7.559-8.027c2.199-2.335 2.07-6.2-.383-8.353-2.14-1.877-5.324-1.539-7.29.546L12 5.593l-.77-.816c-1.96-2.085-5.148-2.423-7.288-.546-2.453 2.153-2.582 6.018-.387 8.353l7.559 8.027a1.2 1.2 0 001.77 0z" />
  </symbol>
  <symbol viewBox="0 0 12 12" id="fill-lock" xmlns="http://www.w3.org/2000/svg">
    <path fill="#FFF" fill-rule="evenodd" d="M9.536 11c.532 0 .964-.42.964-.938v-3.75c0-.517-.432-.937-.964-.937h-.482V3.969C9.054 2.332 7.684 1 6 1 4.317 1 2.946 2.332 2.946 3.969v1.406h-.482c-.532 0-.964.42-.964.937v3.75c0 .518.432.938.964.938h7.072zm-2.09-5.625H4.554V3.969c0-.776.648-1.407 1.446-1.407.798 0 1.446.631 1.446 1.407v1.406zM6 9.437a.793.793 0 01-.804-.78v-.938c0-.432.36-.782.804-.782.444 0 .804.35.804.782v.937c0 .432-.36.781-.804.781z" />
  </symbol>
  <symbol viewBox="0 0 24 24" id="fill-share" xmlns="http://www.w3.org/2000/svg">
    <path d="M17.144 22C19.273 22 21 20.32 21 18.25c-.004-2.07-1.731-3.75-3.86-3.75a3.89 3.89 0 00-2.884 1.262l-3.837-2.332a3.66 3.66 0 000-2.86l3.837-2.332A3.892 3.892 0 0017.14 9.5c2.129 0 3.856-1.68 3.856-3.75 0-2.07-1.727-3.75-3.856-3.75-2.13 0-3.857 1.68-3.857 3.75 0 .508.105.988.29 1.43L9.736 9.512a3.875 3.875 0 00-2.88-1.262C4.727 8.25 3 9.93 3 12c0 2.07 1.727 3.75 3.856 3.75a3.89 3.89 0 002.884-1.262l3.837 2.332c-.19.442-.29.922-.29 1.43 0 2.07 1.728 3.75 3.857 3.75z" />
  </symbol>
  <symbol viewBox="0 0 24 24" id="fill-star" xmlns="http://www.w3.org/2000/svg">
    <path fill="#262626" fill-rule="evenodd" d="M6.137 23.824L12 20.604l5.863 3.22c1.04.572 2.284-.347 2.082-1.58l-1.122-6.819 4.742-4.827c.852-.867.381-2.381-.794-2.56l-6.554-.998-2.93-6.205a1.41 1.41 0 00-2.574 0L7.783 7.04l-6.553 1C.054 8.217-.417 9.73.435 10.598l4.742 4.827-1.122 6.82c-.202 1.232 1.041 2.156 2.082 1.58z" />
  </symbol>
  <symbol viewBox="0 0 24 24" id="fill-warning" xmlns="http://www.w3.org/2000/svg">
    <path d="M12 2C6.478 2 2 6.48 2 12c0 5.524 4.478 10 10 10s10-4.476 10-10c0-5.52-4.478-10-10-10zm-.463 4.839a.485.485 0 00-.484.504l.282 6.774c.011.26.225.464.484.464h.362c.26 0 .473-.205.483-.464l.283-6.774a.485.485 0 00-.484-.504h-.926zM12 15.387a1.13 1.13 0 110 2.259 1.13 1.13 0 010-2.259z" />
  </symbol>
  <symbol viewBox="0 0 16 16" id="filters" xmlns="http://www.w3.org/2000/svg">
    <path fill-opacity=".85" d="M8.042 14.667a.418.418 0 00.416-.417v-2.083h.625c.23 0 .417-.188.417-.417v-.833a.418.418 0 00-.417-.417h-.625V1.75a.417.417 0 00-.416-.417h-.417a.418.418 0 00-.417.417v8.75h-.625a.417.417 0 00-.416.417v.833c0 .23.187.417.416.417h.625v2.083c0 .23.188.417.417.417h.417zm-4.167 0c.23 0 .417-.188.417-.417V5.5h.625a.418.418 0 00.416-.417V4.25a.417.417 0 00-.416-.417h-.625V1.75a.418.418 0 00-.417-.417h-.417a.418.418 0 00-.416.417v2.083h-.625A.418.418 0 002 4.25v.833c0 .23.188.417.417.417h.625v8.75c0 .23.187.417.416.417h.417zm8.333 0c.23 0 .417-.188.417-.417V8.833h.625c.23 0 .417-.187.417-.416v-.834a.418.418 0 00-.417-.416h-.625V1.75a.418.418 0 00-.417-.417h-.416a.418.418 0 00-.417.417v5.417h-.625a.417.417 0 00-.417.416v.834c0 .229.188.416.417.416h.625v5.417c0 .23.187.417.417.417h.416z" />
  </symbol>
  <symbol viewBox="0 0 24 24" id="gallery-fill" xmlns="http://www.w3.org/2000/svg">
    <path fill="#FFF" fill-rule="evenodd" d="M20.125 20c.52 0 .964-.182 1.328-.547.365-.364.547-.807.547-1.328V6.875c0-.52-.182-.964-.547-1.328A1.804 1.804 0 0020.125 5H3.875c-.52 0-.964.182-1.328.547A1.804 1.804 0 002 6.875v11.25c0 .52.182.964.547 1.328.364.365.807.547 1.328.547h16.25zm-13.75-8.438a2.104 2.104 0 01-1.543-.644c-.43-.43-.644-.944-.644-1.543s.214-1.113.644-1.543c.43-.43.944-.644 1.543-.644s1.113.214 1.543.644c.43.43.644.944.644 1.543s-.214 1.113-.644 1.543c-.43.43-.944.645-1.543.645zM19.5 17.5h-15v-1.875l2.813-2.813c.078-.078.182-.117.312-.117s.234.04.313.117L10.124 15l5.313-5.313c.078-.078.182-.117.312-.117s.234.04.313.117l3.437 3.438V17.5z" />
  </symbol>
  <symbol viewBox="0 0 24 24" id="gallery-stroke" xmlns="http://www.w3.org/2000/svg">
    <path fill="#262626" fill-rule="evenodd" d="M20.125 20C21.161 20 22 19.16 22 18.125V6.875C22 5.839 21.16 5 20.125 5H3.875C2.839 5 2 5.84 2 6.875v11.25C2 19.161 2.84 20 3.875 20h16.25zm0-1.25H3.875a.625.625 0 01-.625-.625V6.875c0-.345.28-.625.625-.625h16.25c.345 0 .625.28.625.625v11.25c0 .345-.28.625-.625.625zm-13.75-7.188a2.188 2.188 0 100-4.377 2.188 2.188 0 000 4.378zm0-1.25a.938.938 0 11.001-1.879.938.938 0 01-.001 1.88zM19.031 17.5c.26 0 .469-.21.469-.469v-3.593a.934.934 0 00-.275-.663l-3.437-3.438a.938.938 0 00-1.326 0L10.75 13.05l-1.212-1.212a.938.938 0 00-1.326 0l-3.437 3.438a1.072 1.072 0 00-.275.662v1.094c0 .26.21.469.469.469H19.03zm-.781-1.25H5.75v-.183l3.125-3.125 1.875 1.875 4.375-4.375 3.125 3.125v2.683z" />
  </symbol>
  <symbol viewBox="0 0 20 20" id="grid" xmlns="http://www.w3.org/2000/svg">
    <path d="M4.2 15.8v3.5H.8v-3.5h3.4M5 15H0v5h5v-5zm6.8.8v3.5H8.2v-3.5h3.6m.7-.8h-5v5h5v-5zm6.7.8v3.5h-3.5v-3.5h3.5m.8-.8h-5v5h5v-5zM4.2 8.2v3.5H.8V8.2h3.4m.8-.7H0v5h5v-5zm6.8.7v3.5H8.2V8.2h3.6m.7-.7h-5v5h5v-5zm6.7.7v3.5h-3.5V8.2h3.5m.8-.7h-5v5h5v-5zM4.2.8v3.5H.8V.8h3.4M5 0H0v5h5V0zm6.8.8v3.5H8.2V.8h3.6m.7-.8h-5v5h5V0zm6.7.8v3.5h-3.5V.8h3.5M20 0h-5v5h5V0z" fill="#262626" />
  </symbol>
  <symbol viewBox="0 0 20 20" id="grid-2" xmlns="http://www.w3.org/2000/svg">
    <path d="M19.2.8v6.8h-6.8V.8h6.8M7.6.8v6.8H.8V.8h6.8m11.6 11.6v6.8h-6.8v-6.8h6.8m-11.6 0v6.8H.8v-6.8h6.8M20 0h-8.3v8.3H20V0zM8.3 0H0v8.3h8.3V0zM20 11.7h-8.3V20H20v-8.3zm-11.7 0H0V20h8.3v-8.3z" fill="#262626" />
  </symbol>
  <symbol viewBox="0 0 20 20" id="grid-2-black" xmlns="http://www.w3.org/2000/svg">
    <path fill="#262626" fill-rule="evenodd" d="M8.333 11.667V20H0v-8.333h8.333zm11.667 0V20h-8.333v-8.333H20zM8.333 0v8.333H0V0h8.333zM20 0v8.333h-8.333V0H20z" />
  </symbol>
  <symbol viewBox="0 0 20 20" id="grid-2-grey" xmlns="http://www.w3.org/2000/svg">
    <path fill="#E5E5E5" fill-rule="evenodd" d="M8.333 11.667V20H0v-8.333h8.333zm11.667 0V20h-8.333v-8.333H20zM8.333 0v8.333H0V0h8.333zM20 0v8.333h-8.333V0H20z" />
  </symbol>
  <symbol viewBox="0 0 20 20" id="grid-black" xmlns="http://www.w3.org/2000/svg">
    <path fill="#262626" fill-rule="evenodd" d="M5 15v5H0v-5h5zm7.5 0v5h-5v-5h5zm7.5 0v5h-5v-5h5zM5 7.5v5H0v-5h5zm7.5 0v5h-5v-5h5zm7.5 0v5h-5v-5h5zM5 0v5H0V0h5zm7.5 0v5h-5V0h5zM20 0v5h-5V0h5z" />
  </symbol>
  <symbol viewBox="0 0 20 20" id="grid-grey" xmlns="http://www.w3.org/2000/svg">
    <path fill="#E5E5E5" fill-rule="evenodd" d="M5 15v5H0v-5h5zm7.5 0v5h-5v-5h5zm7.5 0v5h-5v-5h5zM5 7.5v5H0v-5h5zm7.5 0v5h-5v-5h5zm7.5 0v5h-5v-5h5zM5 0v5H0V0h5zm7.5 0v5h-5V0h5zM20 0v5h-5V0h5z" />
  </symbol>
  <symbol viewBox="0 0 20 20" id="home" xmlns="http://www.w3.org/2000/svg">
    <path fill-opacity=".85" d="M11.562 17.5l4.167-.01a.514.514 0 00.521-.506V9.298l1.33 1.055c.04.031.113.057.164.057.069 0 .16-.042.203-.093l.328-.393a.289.289 0 00.058-.159.281.281 0 00-.097-.197L16.25 7.992V5.544a.193.193 0 00-.195-.19h-.651a.194.194 0 00-.196.19v1.624l-4.551-3.61a1.25 1.25 0 00-.658-.225c-.204 0-.498.101-.657.226l-7.58 6.009a.287.287 0 00-.095.196c0 .05.026.12.058.16l.329.392a.299.299 0 00.202.093c.05 0 .123-.025.162-.056l1.33-1.055v7.684c0 .28.234.506.521.506h4.168c.287 0 .52-.227.52-.506v-4.048l2.084.01v4.05c0 .28.233.506.521.506zm.52-1.01v-4.053a.515.515 0 00-.519-.506l-3.125-.009h-.002a.514.514 0 00-.52.506v4.052H4.79V8.472L10 4.343l5.208 4.129-.003 8.008h.003l-3.125.01z" />
  </symbol>
  <symbol viewBox="0 0 18 16" id="ic_edit" xmlns="http://www.w3.org/2000/svg">
    <path d="M9.95 1.649c.324 0 .586.268.586.598a.595.595 0 01-.48.588l-.105.01H1.756a.59.59 0 00-.576.49l-.01.108v10.763c0 .294.208.538.48.588l.106.01h9.95a.59.59 0 00.577-.49l.01-.108v-3.588c0-.33.261-.598.584-.598a.59.59 0 01.576.49l.01.108v3.588c0 .933-.697 1.699-1.587 1.786l-.17.008h-9.95c-.913 0-1.663-.711-1.748-1.621L0 14.206V3.443c0-.933.696-1.699 1.587-1.786l.169-.008h8.195zM14.245.27a.923.923 0 011.314.01l2.168 2.215a.971.971 0 010 1.353L9.03 12.73a.927.927 0 01-.662.28H6.205a.947.947 0 01-.937-.957V9.574a.97.97 0 01.284-.686zm-1.566 3.217l-6.24 6.188v2.14h1.833L14.55 5.4l-1.872-1.913zm2.214-2.196l-1.374 1.363 1.86 1.9 1.354-1.383-1.84-1.88z" fill="#262626" />
  </symbol>
  <symbol viewBox="0 0 32 32" id="inspect" xmlns="http://www.w3.org/2000/svg">
    <path d="M15 10h-3V7a1 1 0 00-2 0v3H7a1 1 0 000 2h3v3a1 1 0 002 0v-3h3a1 1 0 000-2zm6.71 10.29L18 16.61A9 9 0 1016.61 18l3.68 3.68a1 1 0 001.42 0 1 1 0 000-1.39zM11 18a7 7 0 117-7 7 7 0 01-7 7z" />
  </symbol>
  <symbol viewBox="0 0 32 34" id="instagram" xmlns="http://www.w3.org/2000/svg">
    <path d="M19.674 27.016c1.647-.08 3.107-.455 4.313-1.66 1.205-1.206 1.58-2.666 1.66-4.313.08-1.42.067-2.826.067-4.245 0-1.42.014-2.826-.067-4.246-.08-1.647-.455-3.107-1.66-4.312-1.206-1.206-2.666-1.58-4.313-1.661-1.42-.08-2.826-.067-4.245-.067-1.42 0-2.826-.014-4.246.067-1.647.08-3.107.455-4.312 1.66-1.206 1.206-1.58 2.666-1.661 4.313a56.416 56.416 0 00-.068 3.183v1.063c0 1.42-.013 2.826.068 4.245.08 1.647.455 3.107 1.66 4.313 1.206 1.205 2.666 1.58 4.313 1.66 1.42.08 2.826.067 4.246.067 1.42 0 2.825.014 4.245-.067zM9.362 24.82a3.285 3.285 0 01-1.179-.777 3.276 3.276 0 01-.777-1.178c-.535-1.353-.415-4.567-.415-6.067s-.12-4.715.415-6.067c.188-.47.415-.817.777-1.179a3.28 3.28 0 011.179-.777c1.352-.535 4.567-.415 6.067-.415s4.714-.12 6.067.415a3.29 3.29 0 011.178.777c.362.362.59.71.777 1.179.536 1.352.415 4.567.415 6.067s.12 4.714-.415 6.067a3.29 3.29 0 01-.777 1.178c-.361.362-.71.59-1.178.777-1.353.536-4.567.415-6.067.415s-4.715.12-6.067-.415zM20.92 12.539a1.23 1.23 0 001.232-1.232 1.23 1.23 0 00-1.232-1.233c-.683 0-1.232.55-1.232 1.233s.549 1.232 1.232 1.232zm-5.491 9.535a5.269 5.269 0 005.276-5.276 5.27 5.27 0 00-5.276-5.277c-2.92 0-5.277 2.357-5.277 5.277s2.357 5.276 5.277 5.276zm0-1.848A3.435 3.435 0 0112 16.798a3.435 3.435 0 013.429-3.429 3.435 3.435 0 013.428 3.429 3.435 3.435 0 01-3.428 3.428z" />
  </symbol>
  <symbol viewBox="0 0 9 6" id="it_IT" xmlns="http://www.w3.org/2000/svg">
    <path fill="#d2232c" d="M0 0h9v6H0z" />
    <path fill="#fafeff" d="M0 0h6v6H0z" />
    <path fill="#008d46" d="M0 0h3v6H0z" />
  </symbol>
  <symbol viewBox="0 0 61 38" id="jcb-light-large" xmlns="http://www.w3.org/2000/svg">
    <g fill="none">
      <rect width="61" height="38" fill="#DFE3E8" rx="4" />
      <path fill="#FFF" d="M10.205 12.362h12.518v16.079H10.205zm14.056 0h12.543v14.131H24.261zm14.042-.333h12.518V27.49H38.303z" />
      <path fill="#40A648" d="M40.794 22.052h3.292c.606-.11 1.04-.61 1.029-1.188-.022-.566-.441-1.05-1.03-1.187a1.62 1.62 0 00-.355 0h-2.936v2.375z" />
      <path fill="#40A648" d="M43.387 4.75c-2.808 0-5.084 2.127-5.084 4.75v4.928h7.18c.17-.018.34-.018.509 0 1.614.071 2.821.855 2.821 2.209-.033 1.187-1.055 2.142-2.326 2.173 1.652.107 2.91.962 2.91 2.304 0 1.342-1.397 2.375-3.24 2.375h-7.88v9.761h7.473c2.808 0 5.084-2.127 5.084-4.75V4.75h-7.447z" />
      <path fill="#40A648" d="M44.759 16.993c.046-.588-.405-1.107-1.03-1.187h-2.935v2.292h2.656c.093.013.187.013.28 0 .597-.073 1.04-.554 1.03-1.117v.012z" />
      <path fill="#0D67B0" d="M15.25 4.75c-2.807 0-5.083 2.127-5.083 4.75v11.72a10.605 10.605 0 004.384 1.07 2.552 2.552 0 001.949-.6 2.203 2.203 0 00.771-1.776v-5.51h4.333v5.51c0 2.138-1.423 3.883-6.252 3.883-1.748 0-3.489-.2-5.185-.593V33.25h7.46c2.807 0 5.083-2.127 5.083-4.75V4.75h-7.46z" />
      <path fill="#BE2034" d="M29.344 4.75c-2.808 0-5.083 2.127-5.083 4.75v6.21c1.27-1.02 3.52-1.674 7.116-1.508 1.346.076 2.682.266 3.99.57v2.007a10.176 10.176 0 00-3.812-1.045c-2.732-.178-4.384 1.07-4.384 3.266 0 2.197 1.652 3.468 4.384 3.266a10.858 10.858 0 003.813-1.045v2.006a22.796 22.796 0 01-3.99.57c-3.597.167-5.834-.486-7.117-1.508V33.25h7.51c2.808 0 5.084-2.127 5.084-4.75V4.75h-7.511z" />
    </g>
  </symbol>
  <symbol viewBox="0 0 16 16" id="language" xmlns="http://www.w3.org/2000/svg">
    <path fill-rule="evenodd" d="M8 14c3.315 0 6-2.685 6-6s-2.685-6-6-6-6 2.685-6 6 2.685 6 6 6zm1.89-8.323H6.11C6.515 3.841 7.35 2.774 8 2.774c.65 0 1.485 1.067 1.89 2.903zm2.784 0h-1.996c-.218-1.074-.583-1.988-1.045-2.64a5.256 5.256 0 013.041 2.64zm-7.352 0H3.326a5.254 5.254 0 013.04-2.64c-.459.65-.826 1.564-1.044 2.64zm4.703 3.871h-4.05a11.47 11.47 0 010-3.096h4.05a11.482 11.482 0 010 3.096zm-4.827 0h-2.19a5.23 5.23 0 01.002-3.096H5.2a11.887 11.887 0 00-.001 3.096zm7.793 0h-2.19a11.887 11.887 0 00.001-3.096h2.19c.152.488.234 1.008.234 1.548s-.082 1.06-.235 1.548zm-6.624 3.414a5.246 5.246 0 01-3.041-2.64h1.996c.218 1.075.583 1.99 1.045 2.64zM8 13.226c-.65 0-1.485-1.067-1.89-2.903h3.78c-.405 1.836-1.24 2.903-1.89 2.903zm1.633-.264c.46-.648.827-1.563 1.045-2.64h1.996a5.244 5.244 0 01-3.04 2.64z" />
  </symbol>
  <symbol viewBox="0 0 24 24" id="link" xmlns="http://www.w3.org/2000/svg">
    <path d="M9.1 14.5c-.5.3-1 .5-1.5.5H6.5c-.7 0-1.3-.3-1.7-.7-.4-.4-.7-1-.7-1.7v-.2c.1-.6.3-1.1.7-1.5s.9-.6 1.5-.7h1.3c.5 0 1 .2 1.5.5h2.5c-.2-.4-.5-.8-.8-1.1-.9-.9-2-1.4-3.2-1.4H6.5c-2.4 0-4.4 2-4.4 4.4 0 1.2.5 2.3 1.3 3.1S5.3 17 6.5 17h1.1c1.7 0 3.2-1 3.9-2.4l-2.4-.1zm12.8-1.9c0-1.2-.5-2.3-1.3-3.1-.8-.8-1.9-1.3-3.1-1.3h-1.1c-1.7 0-3.2 1-3.9 2.4H15c.4-.3.9-.5 1.5-.5h1.1c1.3 0 2.4 1.1 2.4 2.4 0 1.3-1.1 2.4-2.4 2.4h-1.1c-.5 0-1-.2-1.5-.5h-2.5c.2.4.5.8.8 1.1.8.8 1.9 1.3 3.1 1.3h1.1c1.2 0 2.3-.5 3.1-1.3.8-.7 1.3-1.8 1.3-2.9z" />
    <path d="M7 12.6c0 .5.4 1 1 1h8.1c.5 0 1-.4 1-1 0-.5-.4-1-1-1H8c-.6 0-1 .4-1 1z" />
  </symbol>
  <symbol viewBox="0 0 32 34" id="linkedin" xmlns="http://www.w3.org/2000/svg">
    <path d="M7.607 10.605c1.54 0 2.505-1.018 2.491-2.29-.013-1.299-.95-2.29-2.464-2.29-1.5 0-2.491.991-2.491 2.29 0 1.272.95 2.29 2.437 2.29h.027zm9.054 15.08V18.28c0-.401.04-.79.147-1.084.321-.79 1.045-1.608 2.263-1.608 1.594 0 2.237 1.22 2.237 3v7.099h4.406V18.08c0-4.072-2.17-5.974-5.076-5.974-2.284 0-3.339 1.218-3.93 2.121l-.048.073v-1.886h-4.406l.001.022c.006.207.05 2.07 0 13.25h4.406zm-6.844 0V12.414h-4.42v13.273h4.42z" />
  </symbol>
  <symbol viewBox="0 0 24 24" id="maps-fill" xmlns="http://www.w3.org/2000/svg">
    <path fill="#FFF" fill-rule="evenodd" d="M12.125 22c.322 0 .569-.124.742-.371l2.487-3.563c1.236-1.78 2.053-2.98 2.449-3.6.569-.89.952-1.638 1.15-2.244.198-.606.297-1.305.297-2.097a6.884 6.884 0 00-.965-3.563 7.257 7.257 0 00-2.598-2.597C14.6 3.322 13.412 3 12.126 3s-2.474.322-3.563.965a7.257 7.257 0 00-2.597 2.598A6.863 6.863 0 005 10.124c0 .792.099 1.49.297 2.097.198.606.581 1.354 1.15 2.245.396.618 1.213 1.818 2.45 3.6a289.122 289.122 0 012.486 3.562c.173.247.42.371.742.371z" />
  </symbol>
  <symbol viewBox="0 0 24 24" id="maps-stroke" xmlns="http://www.w3.org/2000/svg">
    <path fill="none" d="M12.125 3.5c1.83 0 3.486.742 4.685 1.94a6.611 6.611 0 011.94 4.685c0 2.283-.702 3.203-3.817 7.64-.702 1-1.525 2.172-2.487 3.567l-.144-.127-.177.262.411-.595a576.319 576.319 0 012.309-3.31c3.227-4.601 3.717-5.387 3.717-7.437 0-1.72-.67-3.336-1.885-4.552a6.395 6.395 0 00-4.552-1.886c-1.72 0-3.336.67-4.552 1.886a6.395 6.395 0 00-1.886 4.552c0 2.05.492 2.836 3.718 7.437.528.752 1.13 1.612 1.818 2.602-.852-.897-1.41-1.691-1.906-2.399-3.115-4.437-3.817-5.357-3.817-7.64 0-1.83.742-3.486 1.94-4.685a6.611 6.611 0 014.685-1.94z" />
  </symbol>
  <symbol viewBox="0 0 61 38" id="mastercard-light-large" xmlns="http://www.w3.org/2000/svg">
    <g fill="none">
      <rect width="60.129" height="38" fill="#DFE3E8" rx="4" />
      <path fill="#F26122" d="M23.675 9.097h12.79v19.808h-12.79z" />
      <path fill="#EA1D25" d="M25.053 19.001c-.021-3.856 1.826-7.507 5.01-9.904-5.448-4.062-13.275-3.472-17.979 1.355-4.703 4.827-4.703 12.27 0 17.097 4.704 4.827 12.531 5.417 17.98 1.355-3.185-2.397-5.032-6.048-5.01-9.904z" />
      <path fill="#F69E1E" d="M50.282 26.803v-.404h.188v-.083h-.438v.083h.175v.403h.075zm.852 0v-.487h-.124l-.15.344-.163-.345h-.126v.487h.088v-.368l.15.32h.1l.138-.32v.368h.088zm.426-7.802c-.003 4.82-2.908 9.216-7.481 11.323-4.574 2.107-10.015 1.556-14.015-1.42 5.762-4.3 6.76-12.214 2.23-17.682a12.766 12.766 0 00-2.23-2.125c4-2.976 9.441-3.527 14.015-1.42C48.652 9.784 51.557 14.18 51.56 19z" />
    </g>
  </symbol>
  <symbol viewBox="0 0 20 20" id="menu" xmlns="http://www.w3.org/2000/svg">
    <path fill="#262626" fill-rule="evenodd" d="M17.3 5.372a.2.2 0 00.2-.2v-.804a.2.2 0 00-.2-.201H2.7a.2.2 0 00-.2.2v.804a.2.2 0 00.2.201h14.6zm0 5.357a.2.2 0 00.2-.2v-.804a.2.2 0 00-.2-.201H2.7a.2.2 0 00-.2.2v.804a.2.2 0 00.2.201h14.6zm0 5.357a.2.2 0 00.2-.2v-.804a.2.2 0 00-.2-.201H2.7a.2.2 0 00-.2.2v.804a.2.2 0 00.2.201h14.6z" />
  </symbol>
  <symbol viewBox="0 0 20 20" id="menu-close" xmlns="http://www.w3.org/2000/svg">
    <path fill="#262626" fill-rule="evenodd" d="M5.113 4.524l5.303 5.304 5.304-5.304.59.59-5.305 5.303 5.304 5.303-.589.59-5.304-5.304-5.303 5.303-.589-.589 5.303-5.303-5.303-5.304.59-.589z" />
  </symbol>
  <symbol viewBox="0 0 16 16" id="minus" xmlns="http://www.w3.org/2000/svg">
    <path d="M2 9V8h12.667v1H2z" />
  </symbol>
  <symbol viewBox="0 0 20 20" id="minus-light" xmlns="http://www.w3.org/2000/svg">
    <path d="M17.5 10v.8H1.7V10h15.8z" fill-rule="evenodd" clip-rule="evenodd" fill="#262626" />
  </symbol>
  <symbol fill="none" viewBox="0 0 16 16" id="package" xmlns="http://www.w3.org/2000/svg">
    <path clip-rule="evenodd" d="M2.667 5.113v5.977l5.711 2.577 5.614-2.577V5.113L8.378 2.667 2.667 5.113z" stroke="#262626" stroke-linecap="round" stroke-linejoin="bevel" />
    <path d="M2.667 5.113l5.711 2.412 5.614-2.412M8.33 7.525l.048 6.142" stroke="#262626" stroke-linecap="round" stroke-linejoin="bevel" />
    <path d="M5.967 3.804l5.36 2.515v1.848" stroke="#262626" stroke-linecap="round" stroke-linejoin="bevel" />
  </symbol>
  <symbol id="paypal-small" viewBox="0 0 16 16" xml:space="preserve" xmlns="http://www.w3.org/2000/svg">
    <style>
      .cqst0 {
        fill-rule: evenodd;
        clip-rule: evenodd;
        fill: #28356a
      }
    </style>
    <path class="cqst0" d="M5.5 14.8l.2-1.6h-3L4.4 1.4v-.1h4.4c1.4 0 2.4.3 2.9.9.2.3.4.6.5.9.1.3.1.8 0 1.3v.3l.2.1c.2.1.4.2.5.4.2.2.3.6.4.9.1.4 0 .8-.1 1.4-.1.6-.3 1.1-.5 1.5-.2.4-.5.7-.8 1-.3.2-.7.4-1.1.5-.4.1-.9.2-1.4.2h-.3c-.2 0-.5.1-.6.3-.2.2-.3.4-.3.6v.1l-.4 2.8v.2H5.5z" />
    <path d="M12.7 4.4v.3c-.6 3.1-2.5 4.1-4.9 4.1H6.4c-.3 0-.5.2-.6.5L5 14.9c0 .2.1.4.3.4h2.2c.3 0 .5-.2.5-.5v-.1l.4-2.8v-.2c0-.3.3-.5.5-.5h.3c2.1 0 3.8-.9 4.3-3.6.2-1.1.1-2-.4-2.7 0-.2-.2-.3-.4-.5z" fill-rule="evenodd" clip-rule="evenodd" fill="#298fc2" />
    <path d="M12.1 4.2c-.1 0-.2-.1-.3-.1-.1 0-.2 0-.3-.1H6.9c-.2.1-.3.3-.3.4l-.8 4.8v.1c0-.3.3-.5.6-.5h1.2c2.5 0 4.4-1.1 4.9-4.1v-.3c-.1-.1-.3-.1-.5-.2h.1z" fill-rule="evenodd" clip-rule="evenodd" fill="#22284f" />
    <path class="cqst0" d="M6.6 4.4c0-.2.1-.3.3-.4h3.5c.4 0 .8 0 1.1.1.1 0 .2 0 .3.1.1 0 .2 0 .3.1h.1c.2.1.3.1.5.2.2-1.1 0-1.9-.6-2.6-.6-.8-1.8-1.1-3.2-1.1H4.6C4.3.7 4 1 4 1.3L2.2 13.2c0 .2.1.4.4.4h2.6l1.4-9.2z" />
  </symbol>
  <symbol viewBox="0 0 165.5 106" id="paypal-sticky" xmlns="http://www.w3.org/2000/svg">
    <path d="M150.7 0h-139c-1 0-2.1.1-3.1.3-1 .2-2 .5-3 1-.9.4-1.8 1.1-2.5 1.8S1.7 4.7 1.3 5.6c-.5.9-.8 1.9-1 3-.2 1-.2 2.1-.3 3.1v82.5c0 1 .1 2.1.3 3.1.2 1 .5 2 1 3 .5.9 1.1 1.8 1.8 2.5s1.6 1.4 2.5 1.8c.9.5 1.9.8 3 1 1 .2 2.1.2 3.1.3h142.1c1 0 2.1-.1 3.1-.3 1-.2 2-.5 3-1 .9-.5 1.8-1.1 2.5-1.8s1.4-1.6 1.8-2.5c.5-.9.8-1.9 1-3 .2-1 .2-2.1.3-3.1V11.7c0-1-.1-2.1-.3-3.1-.2-1-.5-2-1-3-.5-.9-1.1-1.8-1.8-2.5s-1.6-1.4-2.5-1.8c-.9-.5-1.9-.8-3-1-1-.2-2.1-.2-3.1-.3h-3.1z" />
    <path fill="#FFF" d="M150.7 3.5h3.1c.8 0 1.7.1 2.6.2.8.1 1.4.3 2 .6.6.3 1.1.7 1.6 1.2s.9 1 1.2 1.6c.3.6.5 1.2.6 2 .2.9.2 1.8.2 2.6v82.5c0 .8-.1 1.7-.2 2.6-.1.7-.3 1.4-.6 2-.3.6-.7 1.1-1.2 1.6s-1 .9-1.6 1.2c-.6.3-1.2.5-2 .6-.9.2-1.8.2-2.6.2H11.7c-.7 0-1.7-.1-2.6-.2-.7-.1-1.4-.3-2-.7-.6-.3-1.1-.7-1.6-1.2s-.9-1-1.2-1.6c-.3-.6-.5-1.2-.6-2-.2-.9-.2-1.8-.2-2.6V11.7c0-.8.1-1.7.2-2.6.1-.7.3-1.4.6-2 .3-.6.7-1.1 1.2-1.6s1-.9 1.6-1.2c.6-.3 1.2-.5 2-.6.9-.2 1.8-.2 2.6-.2h139" />
    <path fill="#459ADB" d="M97.96 77.907c-.347 2.306-2.12 2.306-3.827 2.306h-.973l.68-4.306a.532.532 0 01.533-.454h.44c1.16 0 2.254 0 2.827.667.347.387.453.973.32 1.787zm-.747-6.027h-6.44a.89.89 0 00-.88.76l-2.6 16.493c-.053.32.2.614.534.614h3.306a.618.618 0 00.614-.534l.733-4.68a.89.89 0 01.88-.76h2.04c4.24 0 6.68-2.053 7.32-6.12.293-1.773.013-3.173-.827-4.146-.906-1.067-2.52-1.627-4.68-1.627" />
    <path fill="#253B7D" d="M52.067 77.907c-.347 2.306-2.12 2.306-3.827 2.306h-.973l.68-4.306a.532.532 0 01.533-.454h.44c1.16 0 2.253 0 2.827.667.346.387.453.973.32 1.787zm-.734-6.027h-6.44a.89.89 0 00-.88.76l-2.6 16.493c-.053.32.2.614.534.614h3.066a.89.89 0 00.88-.76l.707-4.454a.89.89 0 01.88-.76h2.04c4.24 0 6.68-2.053 7.32-6.12.293-1.773.013-3.173-.827-4.146-.906-1.067-2.533-1.627-4.68-1.627m14.934 11.947c-.294 1.76-1.694 2.946-3.48 2.946-.894 0-1.614-.293-2.067-.826-.453-.534-.627-1.307-.48-2.16.28-1.747 1.693-2.96 3.453-2.96.88 0 1.587.293 2.054.84.466.533.653 1.306.52 2.16zm4.293-6h-3.08a.532.532 0 00-.533.453l-.134.867-.213-.307c-.667-.973-2.16-1.293-3.64-1.293-3.4 0-6.307 2.573-6.88 6.2-.293 1.8.12 3.533 1.147 4.733.946 1.107 2.28 1.56 3.88 1.56 2.746 0 4.266-1.76 4.266-1.76l-.133.853c-.053.32.2.627.533.627h2.774a.89.89 0 00.88-.76l1.666-10.547a.538.538 0 00-.533-.626" />
    <path fill="#459ADB" d="M112.16 83.827c-.293 1.76-1.693 2.946-3.48 2.946-.893 0-1.613-.293-2.067-.826-.453-.534-.626-1.307-.48-2.16.28-1.747 1.694-2.96 3.454-2.96.88 0 1.586.293 2.053.84.467.533.653 1.306.52 2.16zm4.293-6h-3.08a.532.532 0 00-.533.453l-.133.867-.214-.307c-.666-.973-2.16-1.293-3.64-1.293-3.4 0-6.306 2.573-6.88 6.2-.293 1.8.12 3.533 1.147 4.733.933 1.107 2.28 1.56 3.88 1.56 2.747 0 4.267-1.76 4.267-1.76l-.134.853c-.053.32.2.627.534.627h2.773a.89.89 0 00.88-.76l1.667-10.547a.552.552 0 00-.534-.626" />
    <path fill="#253B7D" d="M86.973 77.827h-3.106a.886.886 0 00-.734.386l-4.266 6.294-1.814-6.04a.9.9 0 00-.853-.64h-3.04a.531.531 0 00-.507.706l3.414 10.014-3.214 4.52a.53.53 0 00.44.84h3.094a.886.886 0 00.733-.387l10.293-14.867c.24-.333-.013-.826-.44-.826" />
    <path fill="#459ADB" d="M120.08 72.333l-2.64 16.8c-.053.32.2.614.533.614h2.654a.89.89 0 00.88-.76l2.6-16.494a.544.544 0 00-.534-.626H120.6a.554.554 0 00-.52.466m-17.253-46.72c.653-4.146 0-6.973-2.254-9.533-2.466-2.813-6.946-4.027-12.653-4.027h-16.6a2.38 2.38 0 00-2.347 2l-6.906 43.814a1.422 1.422 0 001.413 1.64h10.24l-.707 4.48c-.12.76.467 1.44 1.227 1.44h8.64a2.079 2.079 0 002.053-1.747l.08-.44 1.627-10.32.107-.573A2.067 2.067 0 0188.8 50.6h1.293c8.36 0 14.907-3.4 16.827-13.227.8-4.106.387-7.533-1.733-9.946-.64-.72-1.44-1.32-2.36-1.814" />
    <path fill="#232D62" d="M102.827 25.613c.653-4.146 0-6.973-2.254-9.533-2.466-2.813-6.946-4.027-12.653-4.027h-16.6a2.38 2.38 0 00-2.347 2l-6.906 43.814a1.422 1.422 0 001.413 1.64h10.24l2.573-16.32-.08.506c.187-1.16 1.174-2 2.334-2h4.866c9.56 0 17.054-3.88 19.24-15.12.067-.32.12-.653.174-.96" />
    <path fill="#253B7D" d="M79.053 25.667a2.059 2.059 0 011.16-1.547c.267-.133.574-.2.894-.2h13c1.546 0 2.973.107 4.293.307.373.066.747.133 1.093.213.36.08.694.173 1.027.267.173.053.333.093.493.146.64.214 1.24.467 1.8.76.654-4.146 0-6.973-2.253-9.533-2.467-2.813-6.947-4.027-12.653-4.027H71.32a2.38 2.38 0 00-2.347 2l-6.906 43.814a1.422 1.422 0 001.413 1.64h10.24l2.573-16.32 2.76-17.52" />
  </symbol>
  <symbol viewBox="0 0 16 16" id="phone" xmlns="http://www.w3.org/2000/svg">
    <path d="M11.1 2.3l2.5.6c0 5.9-4.8 10.7-10.7 10.7l-.6-2.5L5.1 10l1.5 1.8c2.6-1.2 4-2.7 5.3-5.3L10 5.1l1.1-2.8m-.1-.2l-.1.2L9.8 5l-.1.1.1.1 1.7 1.4c-1.1 2.4-2.5 3.8-4.9 5L5.2 9.8l-.1-.1-.1.1L2.3 11h-.2v.2l.6 2.5v.2h.2c6 0 11-4.9 11-11v-.2h-.2l-2.5-.6H11z" fill="#262626" />
  </symbol>
  <symbol viewBox="0 0 32 34" id="pinterest" xmlns="http://www.w3.org/2000/svg">
    <path d="M16 29.75c6.629 0 12-5.707 12-12.75S22.629 4.25 16 4.25 4 9.957 4 17c0 5.403 3.165 10.02 7.626 11.876-.102-1.008-.199-2.56.043-3.66.218-.998 1.404-6.334 1.404-6.334s-.359-.761-.359-1.892c0-1.774.968-3.095 2.173-3.095 1.026 0 1.52.817 1.52 1.794 0 1.095-.654 2.73-.992 4.247-.286 1.27.6 2.303 1.775 2.303 2.134 0 3.774-2.39 3.774-5.84 0-3.054-2.066-5.188-5.012-5.188-3.416 0-5.42 2.72-5.42 5.532 0 1.095.397 2.267.886 2.91a.398.398 0 01.082.365c-.092.4-.295 1.27-.334 1.444-.053.232-.174.283-.401.17-1.496-.74-2.434-3.07-2.434-4.94 0-4.026 2.753-7.717 7.93-7.717 4.162 0 7.399 3.151 7.399 7.362 0 4.395-2.608 7.933-6.228 7.933-1.214 0-2.356-.674-2.748-1.466 0 0-.6 2.437-.745 3.034-.271 1.105-1.002 2.493-1.49 3.341 1.122.37 2.312.571 3.551.571z" />
  </symbol>
  <symbol viewBox="0 0 24 24" id="placeholder" xmlns="http://www.w3.org/2000/svg">
    <circle cx="12" cy="12" r="10" />
  </symbol>
  <symbol viewBox="0 0 16 16" id="plus" xmlns="http://www.w3.org/2000/svg">
    <path d="M8.444 13.333c.123 0 .223-.1.223-.222V8.667h4.444c.123 0 .222-.1.222-.223v-.888c0-.123-.1-.223-.222-.223H8.667V2.89c0-.123-.1-.222-.223-.222h-.888c-.123 0-.223.1-.223.222v4.444H2.89c-.123 0-.222.1-.222.223v.888c0 .123.1.223.222.223h4.444v4.444c0 .123.1.222.223.222h.888z" />
  </symbol>
  <symbol viewBox="0 0 20 20" id="plus-light" xmlns="http://www.w3.org/2000/svg">
    <path fill="#262626" fill-rule="evenodd" d="M10 2.5V10h7.5v.833H10v7.5h-.833v-7.5h-7.5V10h7.5V2.5H10z" />
  </symbol>
  <symbol viewBox="0 0 24 24" id="radio" xmlns="http://www.w3.org/2000/svg">
    <path fill="#262626" fill-rule="evenodd" d="M12 2C6.476 2 2 6.476 2 12s4.476 10 10 10 10-4.476 10-10S17.524 2 12 2zm8.71 10c0 4.786-3.875 8.71-8.71 8.71-4.786 0-8.71-3.875-8.71-8.71 0-4.786 3.875-8.71 8.71-8.71 4.786 0 8.71 3.875 8.71 8.71z" />
  </symbol>
  <symbol viewBox="0 0 24 24" id="radio-selected" xmlns="http://www.w3.org/2000/svg">
    <path fill="#262626" fill-rule="evenodd" d="M12 2c5.524 0 10 4.476 10 10s-4.476 10-10 10S2 17.524 2 12 6.476 2 12 2zm0 1.29c-4.835 0-8.71 3.924-8.71 8.71 0 4.835 3.924 8.71 8.71 8.71 4.835 0 8.71-3.924 8.71-8.71 0-4.835-3.924-8.71-8.71-8.71zM12 6a6.005 6.005 0 015.996 5.776L18 12a6.005 6.005 0 01-5.776 5.996L12 18c-3.314 0-6-2.693-6-6a6.005 6.005 0 015.776-5.996L12 6z" />
  </symbol>
  <symbol viewBox="0 0 16 16" id="search" xmlns="http://www.w3.org/2000/svg">
    <path fill-rule="evenodd" d="M14.575 14.542l-3.359-3.36a.307.307 0 00-.221-.09h-.268A5.416 5.416 0 006.75 2a5.416 5.416 0 103.674 9.396v.265c0 .084.034.162.092.222l3.359 3.36c.122.121.32.121.443 0l.257-.259a.31.31 0 000-.442zM6.75 12a4.58 4.58 0 01-4.583-4.583A4.58 4.58 0 016.75 2.833a4.58 4.58 0 014.583 4.584A4.58 4.58 0 016.75 12z" />
  </symbol>
  <symbol viewBox="0 0 24 24" id="share-copy" xmlns="http://www.w3.org/2000/svg">
    <path d="M19.143 20.286a.857.857 0 00.857-.857V8.57a.857.857 0 00-.857-.857h-3.714c-.349 0-.795.152-1.143.357V5.143a.857.857 0 00-.857-.857H9.714c-.473 0-1.134.276-1.464.607L4.607 8.536C4.277 8.866 4 9.526 4 10v6c0 .473.384.857.857.857h4.857v2.572c0 .473.384.857.857.857h8.572zm-9.429-4.572H5.143V10h3.714a.857.857 0 00.857-.857V5.429h3.429v3.714l-2.822 2.821c-.33.33-.607.991-.607 1.465v2.285zM8.571 8.857h-2.67l2.67-2.67v2.67zm10.286 10.286h-8v-5.714h3.714a.858.858 0 00.858-.858V8.857h3.428v10.286zm-4.571-6.857h-2.67l2.67-2.67v2.67z" />
  </symbol>
  <symbol viewBox="0 0 24 24" id="share-facebook" xmlns="http://www.w3.org/2000/svg">
    <path d="M12.857 19.143v-6.777h2.268l.348-2.643h-2.616V8.036c0-.76.206-1.286 1.304-1.286h1.402V4.393c-.242-.036-1.072-.107-2.036-.107-2.018 0-3.402 1.232-3.402 3.49v1.947H7.848v2.643h2.277v6.777h2.732z" />
  </symbol>
  <symbol viewBox="0 0 24 24" id="share-mail" xmlns="http://www.w3.org/2000/svg">
    <path d="M18.5 18a1.5 1.5 0 001.5-1.5v-9A1.5 1.5 0 0018.5 6h-13A1.5 1.5 0 004 7.5v9A1.5 1.5 0 005.5 18h13zM12 13.5c-.725.012-1.768-.983-2.294-1.397C7.318 10.233 6.2 9.346 5.5 8.775V7.5h13v1.275c-.7.57-1.818 1.458-4.206 3.328-.526.414-1.569 1.408-2.294 1.397zm6.5 3h-13v-5.8c.716.57 1.732 1.37 3.28 2.583.682.537 1.878 1.724 3.22 1.717 1.335.007 2.516-1.162 3.22-1.717A540.294 540.294 0 0018.5 10.7v5.8z" />
  </symbol>
  <symbol viewBox="0 0 24 24" id="share-pinterest" xmlns="http://www.w3.org/2000/svg">
    <path d="M8.536 19.143l.125-.045c1.5-2.053 1.446-2.455 2.125-5.143.366.697 1.312 1.072 2.062 1.072 3.16 0 4.58-3.08 4.58-5.857 0-2.956-2.553-4.884-5.357-4.884C9.018 4.286 6 6.32 6 9.616c0 1.17.464 2.875 1.741 3.259.045.009.107.027.152.027.295 0 .464-.822.464-1.054 0-.277-.705-.866-.705-2.018 0-2.393 1.821-4.089 4.178-4.089 2.027 0 3.527 1.152 3.527 3.268 0 1.58-.634 4.545-2.687 4.545-.741 0-1.375-.536-1.375-1.304 0-1.125.785-2.214.785-3.375 0-.705-.401-1.277-1.151-1.277-1.018 0-1.643 1.143-1.643 2.045 0 .5.062 1.053.285 1.509-.41 1.768-1.25 4.402-1.25 6.223 0 .562.08 1.116.134 1.679l.08.089z" />
  </symbol>
  <symbol viewBox="0 0 24 24" id="share-thumblr" xmlns="http://www.w3.org/2000/svg">
    <path d="M13.571 19.143c1.09-.018 2.304-.473 2.572-.875l-.714-2.116c-.277.134-.804.25-1.197.259-1.196.026-1.428-.84-1.428-1.465v-4.625h2.982v-2.25h-2.973V4.286h-2.18c-.035 0-.097.035-.106.107-.125 1.16-.67 3.196-2.92 4.009v1.92h1.5v4.857c0 1.66 1.223 4.017 4.464 3.964z" />
  </symbol>
  <symbol viewBox="0 0 24 24" id="share-twitter" xmlns="http://www.w3.org/2000/svg">
    <path d="M9.821 18c5.304 0 8.206-4.393 8.206-8.205 0-.125 0-.25-.01-.375a6.208 6.208 0 001.447-1.491 5.804 5.804 0 01-1.66.446 2.874 2.874 0 001.267-1.59 5.655 5.655 0 01-1.83.697 2.879 2.879 0 00-2.107-.91 2.882 2.882 0 00-2.884 2.883c0 .224.027.447.071.661a8.199 8.199 0 01-5.946-3.018 2.883 2.883 0 00.893 3.857 2.9 2.9 0 01-1.304-.366v.036c0 1.402.991 2.562 2.313 2.83-.241.063-.5.099-.76.099-.187 0-.365-.018-.544-.045a2.89 2.89 0 002.697 2 5.773 5.773 0 01-3.58 1.232c-.242 0-.465-.009-.697-.036A8.145 8.145 0 009.82 18z" />
  </symbol>
  <symbol viewBox="0 0 24 24" id="share-weibo" xmlns="http://www.w3.org/2000/svg">
    <path d="M19.795 10.94a4.23 4.23 0 00-.884-4.143 4.23 4.23 0 00-4.036-1.304.611.611 0 00-.473.724.62.62 0 00.732.473A3.01 3.01 0 0118 7.618c.75.822.946 1.956.625 2.947a.62.62 0 00.402.768.609.609 0 00.768-.393zm-9.08 7.42c4.348 0 7.24-2.527 7.24-4.536 0-1.215-1.017-1.902-1.937-2.188-.223-.071-.375-.116-.26-.41.25-.643.278-1.197 0-1.59-.517-.74-1.937-.705-3.562-.018 0-.009-.508.224-.383-.187.25-.804.214-1.482-.18-1.866-.883-.884-3.231.027-5.25 2.044C4.876 11.12 4 12.717 4 14.1c0 2.652 3.393 4.26 6.714 4.26zm7.008-8.09a2.058 2.058 0 00-2.393-2.652.523.523 0 00-.401.625.517.517 0 00.625.402c.339-.071.705.036.955.313.25.276.321.651.214.99a.524.524 0 00.34.661c.276.09.57-.062.66-.339zM5.616 14.734c-.17-1.74 1.83-3.357 4.482-3.625 2.652-.259 4.938.938 5.107 2.679.17 1.741-1.83 3.357-4.482 3.625-2.652.259-4.937-.938-5.107-2.679zm6.804.483c.535-1.197-.125-2.429-1.438-2.768-1.259-.322-2.678.303-3.232 1.41-.554 1.134-.018 2.393 1.259 2.804 1.321.429 2.875-.232 3.41-1.446zm-2.01-.786c-.16-.072-.205-.241-.115-.402a.39.39 0 01.446-.17c.16.063.214.241.125.402a.382.382 0 01-.455.17zm-1.606 1.312c-.402-.187-.527-.66-.268-1.062.25-.393.785-.572 1.187-.402.42.179.554.652.304 1.063-.26.41-.813.589-1.223.401z" />
  </symbol>
  <symbol viewBox="0 0 24 24" id="share-whatsapp" xmlns="http://www.w3.org/2000/svg">
    <path d="M5 20l4.072-1.298a7.42 7.42 0 003.565.91c4.062 0 7.363-3.275 7.363-7.306C20 8.276 16.7 5 12.637 5c-4.063 0-7.364 3.275-7.364 7.306 0 1.328.362 2.636 1.055 3.77L5 20zm7.637-1.609a6.212 6.212 0 01-3.37-1.007l-2.363.746.772-2.258a6.025 6.025 0 01-1.172-3.566c0-3.353 2.754-6.085 6.133-6.085s6.133 2.732 6.133 6.085c0 3.353-2.754 6.085-6.133 6.085zm1.972-2.422c.557 0 1.465-.349 1.69-.891.088-.223.166-.495.166-.737 0-.039 0-.097-.02-.145-.068-.117-1.66-.94-1.826-.94-.254 0-.742.94-1.035.94a.442.442 0 01-.215-.068c-.547-.271-1.025-.552-1.474-.979-.372-.349-.782-.872-.997-1.327a.29.29 0 01-.048-.146c0-.223.673-.64.673-1.007 0-.097-.498-1.415-.566-1.58-.098-.252-.146-.33-.41-.33-.127 0-.244-.028-.361-.028a.708.708 0 00-.508.213c-.469.436-.703.891-.723 1.53v.078c-.01.669.322 1.338.693 1.88.84 1.23 1.71 2.306 3.106 2.936.42.194 1.387.601 1.855.601z" />
  </symbol>
  <symbol viewBox="0 0 16 16" id="sorting" xmlns="http://www.w3.org/2000/svg">
    <path fill-opacity=".85" d="M4.43 1.437a.32.32 0 01.472 0L7.236 3.93a.37.37 0 010 .5l-.197.21a.321.321 0 01-.471 0l-1.43-1.533v11.56h-.944V3.107L2.765 4.639a.32.32 0 01-.471 0l-.196-.208a.37.37 0 010-.501zm7.376-.104v11.56l1.429-1.532a.32.32 0 01.471 0l.196.208a.37.37 0 010 .501l-2.333 2.493a.32.32 0 01-.471 0L8.764 12.07a.37.37 0 010-.5l.197-.21a.321.321 0 01.471 0l1.43 1.533V1.333h.944z" />
  </symbol>
  <symbol viewBox="0 0 24 24" id="stroke-arrow-down" xmlns="http://www.w3.org/2000/svg">
    <path d="M2.585 7.808l9.462 9.462c.21.21.55.21.761 0l9.462-9.462c.21-.21.21-.55 0-.76l-.317-.318a.537.537 0 00-.76 0l-8.765 8.765L3.663 6.73a.537.537 0 00-.76 0l-.318.317c-.21.21-.21.55 0 .76z" />
  </symbol>
  <symbol viewBox="0 0 24 24" id="stroke-arrow-dx" xmlns="http://www.w3.org/2000/svg">
    <path d="M8.235 21.842l9.462-9.462c.21-.21.21-.55 0-.76L8.235 2.158a.537.537 0 00-.76 0l-.317.317c-.21.21-.21.55 0 .76L15.922 12l-8.764 8.765c-.21.21-.21.55 0 .76l.317.317c.21.21.55.21.76 0z" />
  </symbol>
  <symbol viewBox="0 0 24 24" id="stroke-arrow-sx" xmlns="http://www.w3.org/2000/svg">
    <path d="M16.62 2.158L7.158 11.62c-.21.21-.21.55 0 .76l9.462 9.462c.21.21.55.21.76 0l.317-.317c.21-.21.21-.55 0-.76L8.933 12l8.764-8.765c.21-.21.21-.55 0-.76l-.317-.317a.537.537 0 00-.76 0z" />
  </symbol>
  <symbol viewBox="0 0 24 24" id="stroke-arrow-up" xmlns="http://www.w3.org/2000/svg">
    <path d="M22.27 16.192L12.808 6.73a.537.537 0 00-.76 0l-9.463 9.462c-.21.21-.21.55 0 .76l.317.318c.21.21.55.21.76 0l8.766-8.765 8.764 8.765c.21.21.55.21.761 0l.317-.317c.21-.21.21-.55 0-.76z" />
  </symbol>
  <symbol viewBox="0 0 26 24" id="stroke-assistence" xmlns="http://www.w3.org/2000/svg">
    <path fill-rule="evenodd" d="M19.703 21c1.68 0 3.047-1.262 3.047-2.813V12c0-4.962-4.374-9-9.75-9-5.41 0-9.6 4.142-9.746 9l-.004.844c0 .155.136.281.305.281h.61c.167 0 .304-.126.304-.281L4.472 12C4.6 7.753 8.263 4.125 13 4.125c4.704 0 8.531 3.533 8.531 7.875v6.188c0 .93-.82 1.687-1.828 1.687h-3.159a1.56 1.56 0 00.112-.563c0-.931-.818-1.687-1.828-1.687h-2.437c-1.01 0-1.829.756-1.829 1.688 0 .931.819 1.687 1.829 1.687h7.312zm-10.36-4.513c.674 0 1.22-.503 1.22-1.125v-4.487c0-.621-.546-1.125-1.22-1.125H8.126c-1.346 0-2.438 1.007-2.438 2.25v2.237c0 1.243 1.092 2.25 2.438 2.25h1.219zm8.532 0c1.346 0 2.438-1.007 2.438-2.25V12c0-1.243-1.092-2.25-2.438-2.25h-1.219c-.673 0-1.218.504-1.218 1.125v4.487c0 .622.545 1.125 1.218 1.125h1.219zm-8.531-1.125H8.125c-.672 0-1.219-.504-1.219-1.125V12c0-.62.547-1.125 1.219-1.125h1.219v4.487zm8.531 0h-1.219v-4.487h1.219c.672 0 1.219.505 1.219 1.125v2.237c0 .62-.547 1.125-1.219 1.125zm-3.047 4.513h-2.437c-.336 0-.61-.252-.61-.563 0-.31.274-.562.61-.562h2.437c.336 0 .61.252.61.563 0 .31-.274.562-.61.562z" />
  </symbol>
  <symbol viewBox="0 0 20 20" id="stroke-attached" xmlns="http://www.w3.org/2000/svg">
    <path fill="#262626" fill-rule="evenodd" d="M6.603 18.333c1.051 0 2.102-.41 2.903-1.23l6.92-7.087a.399.399 0 000-.552l-.18-.185a.377.377 0 00-.54 0l-6.92 7.088a3.039 3.039 0 01-4.366 0 3.221 3.221 0 010-4.473l8.328-8.53a2.154 2.154 0 013.095 0 2.281 2.281 0 010 3.17L8.768 13.78a1.269 1.269 0 01-1.823 0 1.345 1.345 0 010-1.868l5.412-5.544a.399.399 0 000-.552l-.18-.184a.375.375 0 00-.54 0l-5.412 5.543c-.9.921-.9 2.42 0 3.342.9.92 2.363.92 3.262 0l7.076-7.247a3.344 3.344 0 000-4.644 3.157 3.157 0 00-4.534 0L3.7 11.157c-1.6 1.64-1.6 4.307 0 5.947.8.82 1.852 1.23 2.903 1.23z" />
  </symbol>
  <symbol viewBox="0 0 24 24" id="stroke-chat" xmlns="http://www.w3.org/2000/svg">
    <path d="M9.047 21a.411.411 0 00.25-.084l4.39-3.291h5.063a2.252 2.252 0 002.25-2.25V5.25A2.252 2.252 0 0018.75 3H5.25A2.252 2.252 0 003 5.25v10.125a2.252 2.252 0 002.25 2.25h3.375v2.953c0 .25.204.422.422.422zm.703-1.828V16.5h-4.5a1.128 1.128 0 01-1.125-1.125V5.25c0-.619.506-1.125 1.125-1.125h13.5c.619 0 1.125.506 1.125 1.125v10.125c0 .619-.506 1.125-1.125 1.125h-5.439l-.299.225-3.262 2.447zM7.5 11.156a.842.842 0 00.844-.844.841.841 0 00-.844-.843.841.841 0 00-.844.843c0 .468.376.844.844.844zm4.5 0a.842.842 0 00.844-.844.841.841 0 00-.844-.843.841.841 0 00-.844.843c0 .468.376.844.844.844zm4.5 0a.842.842 0 00.844-.844.841.841 0 00-.844-.843.841.841 0 00-.844.843c0 .468.376.844.844.844z" />
  </symbol>
  <symbol viewBox="0 0 24 24" id="stroke-check-circle" xmlns="http://www.w3.org/2000/svg">
    <path d="M12 2C6.477 2 2 6.477 2 12s4.477 10 10 10 10-4.477 10-10S17.523 2 12 2zm0 18.71c-4.785 0-8.71-3.873-8.71-8.71 0-4.785 3.873-8.71 8.71-8.71 4.785 0 8.71 3.873 8.71 8.71 0 4.785-3.873 8.71-8.71 8.71zm5.71-11.087l-7.277 7.219a.483.483 0 01-.684-.003l-3.463-3.491a.483.483 0 01.003-.684l.344-.341a.483.483 0 01.684.003l2.781 2.803 6.59-6.537a.485.485 0 01.685.003l.34.343a.484.484 0 01-.002.685z" />
  </symbol>
  <symbol viewBox="0 0 24 24" id="stroke-close" xmlns="http://www.w3.org/2000/svg">
    <path d="M5.814 19.883L12 13.697l5.128 5.128 1.058 1.058a.4.4 0 00.565 0l1.132-1.132a.4.4 0 000-.565L13.697 12l5.128-5.128 1.058-1.057a.4.4 0 000-.566l-1.132-1.132a.401.401 0 00-.565 0L12 10.303 5.815 4.117a.4.4 0 00-.566 0L4.117 5.249a.4.4 0 000 .565L10.303 12l-6.186 6.186a.4.4 0 000 .565l1.132 1.132a.4.4 0 00.565 0z" />
  </symbol>
  <symbol viewBox="0 0 24 24" id="stroke-close-circle" xmlns="http://www.w3.org/2000/svg">
    <path d="M12 2C6.476 2 2 6.476 2 12s4.476 10 10 10 10-4.476 10-10S17.524 2 12 2zm0 18.71c-4.786 0-8.71-3.875-8.71-8.71 0-4.786 3.875-8.71 8.71-8.71 4.786 0 8.71 3.875 8.71 8.71 0 4.786-3.875 8.71-8.71 8.71zm3.823-11.504L13.028 12l2.795 2.794c.19.19.19.496 0 .686l-.343.343a.484.484 0 01-.686 0L12 13.028l-2.794 2.795a.484.484 0 01-.686 0l-.343-.343a.484.484 0 010-.686L10.972 12 8.177 9.206a.484.484 0 010-.686l.343-.343c.19-.19.496-.19.686 0L12 10.972l2.794-2.795c.19-.19.496-.19.686 0l.343.343a.493.493 0 010 .686z" />
  </symbol>
  <symbol viewBox="0 0 24 24" id="stroke-email" xmlns="http://www.w3.org/2000/svg">
    <path d="M19.312 19c.932 0 1.688-.784 1.688-1.75V6.75C21 5.784 20.244 5 19.312 5H4.687C3.756 5 3 5.784 3 6.75v10.5c0 .966.756 1.75 1.687 1.75h14.625zM12 14.333c-.816.015-1.99-1.163-2.58-1.651-3.425-2.818-4.525-3.748-5.295-4.423V6.75c0-.32.253-.583.562-.583h14.625c.31 0 .563.262.563.583v1.51c-.77.674-1.87 1.604-5.295 4.422-.594.488-1.764 1.666-2.58 1.651zm7.312 3.5H4.687a.574.574 0 01-.562-.583V9.776c.802.682 2.067 1.735 4.595 3.817.72.598 1.993 1.914 3.28 1.907 1.28.01 2.542-1.294 3.28-1.907a422.338 422.338 0 004.595-3.817v7.474c0 .32-.253.583-.563.583z" />
  </symbol>
  <symbol viewBox="0 0 24 24" id="stroke-eye" xmlns="http://www.w3.org/2000/svg">
    <path d="M12 12.778a2.223 2.223 0 000-4.445c-.035 0-.065.009-.099.01.055.151.1.403.1.563 0 .91-.74 1.65-1.65 1.65a1.96 1.96 0 01-.563-.1l-.01.1c0 1.226.995 2.222 2.222 2.222zm9.88-1.618C19.995 7.486 16.267 5 12 5c-4.268 0-7.997 2.487-9.88 6.16a1.35 1.35 0 00-.12.507c0 .148.054.375.12.507 1.884 3.674 5.612 6.16 9.88 6.16 4.268 0 7.997-2.488 9.88-6.16.066-.133.12-.36.12-.507 0-.148-.054-.375-.12-.507zM12 6.11A4.446 4.446 0 0112 15a4.446 4.446 0 01-4.444-4.444A4.454 4.454 0 0112 6.11zm0 11.111c-3.728 0-7.134-2.129-8.889-5.555.839-1.646 2.857-3.658 4.506-4.491a5.507 5.507 0 00-1.173 3.38A5.558 5.558 0 0012 16.11a5.558 5.558 0 005.556-5.555c0-1.28-.449-2.442-1.173-3.38 1.649.833 3.667 2.845 4.506 4.49-1.755 3.427-5.161 5.556-8.889 5.556z" />
  </symbol>
  <symbol viewBox="0 0 24 24" id="stroke-heart" xmlns="http://www.w3.org/2000/svg">
    <path d="M11.997 21c.32 0 .64-.129.882-.39l7.559-8.027c2.203-2.33 2.074-6.196-.379-8.35-2.129-1.864-5.312-1.555-7.289.543l-.77.82-.769-.816c-1.594-1.696-4.809-2.716-7.29-.547-2.452 2.154-2.581 6.02-.386 8.35l7.559 8.027c.242.257.562.39.883.39zm.02-1.282l-7.563-8.027c-1.5-1.591-1.813-4.625.3-6.477 2.141-1.88 4.657-.519 5.579.462L12 7.448l1.668-1.772c.907-.964 3.446-2.33 5.579-.462 2.109 1.848 1.8 4.881.3 6.477l-7.53 8.027z" />
  </symbol>
  <symbol viewBox="0 0 24 24" id="stroke-info" xmlns="http://www.w3.org/2000/svg">
    <path fill="#262626" fill-rule="evenodd" d="M12.5 22a9.5 9.5 0 009.5-9.5C22 7.255 17.746 3 12.5 3S3 7.255 3 12.5a9.5 9.5 0 009.5 9.5zm0-1.226A8.272 8.272 0 014.226 12.5c0-4.566 3.7-8.274 8.274-8.274 4.544 0 8.274 3.68 8.274 8.274a8.27 8.27 0 01-8.274 8.274zm0-11.339a1.225 1.225 0 10.001-2.45 1.225 1.225 0 00-.001 2.45zm1.379 7.968a.46.46 0 00.46-.46v-.306a.46.46 0 00-.46-.46h-.46v-5.362a.46.46 0 00-.46-.46h-1.838a.46.46 0 00-.46.46v.306c0 .254.206.46.46.46h.46v4.596h-.46a.46.46 0 00-.46.46v.307c0 .253.206.46.46.46h2.758z" />
  </symbol>
  <symbol viewBox="0 0 25 24" id="stroke-maps" xmlns="http://www.w3.org/2000/svg">
    <path d="M12.71 3.5c1.83 0 3.486.742 4.685 1.94a6.603 6.603 0 011.94 4.685c0 2.283-.701 3.203-3.816 7.64-.702 1-1.525 2.172-2.487 3.567l-.144-.127-.178.262.412-.595a490.371 490.371 0 012.309-3.31c3.226-4.601 3.717-5.387 3.717-7.437 0-1.72-.67-3.336-1.885-4.552a6.396 6.396 0 00-4.552-1.886c-1.72 0-3.337.67-4.552 1.886a6.395 6.395 0 00-1.886 4.552c0 2.05.491 2.836 3.718 7.437.528.752 1.13 1.612 1.818 2.602-.852-.897-1.41-1.691-1.907-2.399-3.114-4.437-3.816-5.357-3.816-7.64 0-1.83.741-3.486 1.94-4.685a6.608 6.608 0 014.685-1.94z" />
  </symbol>
  <symbol viewBox="0 0 24 24" id="stroke-minus" xmlns="http://www.w3.org/2000/svg">
    <path d="M19.667 13.067c.184 0 .333-.15.333-.334V11.4a.334.334 0 00-.333-.333H4.333A.333.333 0 004 11.4v1.333c0 .184.15.334.333.334h15.334z" />
  </symbol>
  <symbol viewBox="0 0 24 24" id="stroke-phone" xmlns="http://www.w3.org/2000/svg">
    <path fill="#262626" fill-rule="evenodd" d="M20.15 3.847l-3.544-.819a1.101 1.101 0 00-1.259.637l-1.635 3.814c-.193.447-.063.974.313 1.283l1.895 1.55a12.305 12.305 0 01-5.61 5.611L8.758 14.03a1.1 1.1 0 00-1.283-.313l-3.81 1.633a1.099 1.099 0 00-.637 1.256l.816 3.54c.116.502.559.854 1.072.854C13.783 21 21 13.821 21 4.916c0-.513-.352-.956-.85-1.069zM4.936 19.875l-.808-3.501 3.775-1.618 2.092 2.56c3.642-1.709 5.615-3.688 7.316-7.316l-2.56-2.092 1.618-3.776 3.502.809c-.008 8.244-6.69 14.923-14.935 14.934z" />
  </symbol>
  <symbol viewBox="0 0 24 24" id="stroke-plus" xmlns="http://www.w3.org/2000/svg">
    <path d="M12.667 20c.184 0 .333-.15.333-.333V13h6.667c.184 0 .333-.15.333-.333v-1.334a.334.334 0 00-.333-.333H13V4.333A.334.334 0 0012.667 4h-1.334a.334.334 0 00-.333.333V11H4.333a.334.334 0 00-.333.333v1.334c0 .184.15.333.333.333H11v6.667c0 .184.15.333.333.333h1.334z" />
  </symbol>
  <symbol viewBox="0 0 24 24" id="stroke-print" xmlns="http://www.w3.org/2000/svg">
    <path d="M17.063 22c.31 0 .562-.266.562-.594V17.25h2.813c.31 0 .562-.266.562-.594v-3.562c0-1.64-1.26-2.969-2.813-2.969h-.562v-3.07c0-.316-.118-.618-.33-.84L14.58 3.347a1.093 1.093 0 00-.795-.348H7.447c-.592 0-1.072.532-1.072 1.188v5.937h-.563C4.26 10.125 3 11.455 3 13.094v3.562c0 .328.252.594.563.594h2.812v4.156c0 .328.252.594.563.594h10.125zM16.5 10.125h-9l.004-5.938h5.621v2.375c0 .656.504 1.188 1.125 1.188h2.25v2.375zm-.466-3.563H14.25V4.68l1.784 1.883zm3.841 9.5H4.125v-2.968c0-.983.757-1.781 1.688-1.781h12.375c.93 0 1.687.798 1.687 1.78v2.97zm-2.813-1.484c.466 0 .844-.399.844-.89 0-.493-.378-.891-.843-.891-.466 0-.844.398-.844.89s.378.891.843.891zm-.562 6.235h-9V17.25h9v3.563z" />
  </symbol>
  <symbol viewBox="0 0 24 24" id="stroke-ruler" xmlns="http://www.w3.org/2000/svg">
    <path d="M6.813 22.326c.184-.04.362-.127.511-.262L22.184 8.7c.46-.404.496-1.107.086-1.561l-3.714-4.123a1.11 1.11 0 00-1.567-.08L2.125 16.301a1.103 1.103 0 00-.081 1.563l3.713 4.12c.275.305.68.421 1.056.342zm-.256-1.032l-3.732-4.147 2.074-1.867 2.053 2.28c.103.114.28.122.395.02l.414-.375a.28.28 0 00.02-.395l-2.053-2.28 1.66-1.491 1.307 1.449a.28.28 0 00.395.02l.414-.375a.28.28 0 00.02-.395L8.217 12.29l1.66-1.492 2.053 2.28a.28.28 0 00.394.02l.415-.375a.28.28 0 00.02-.395l-2.055-2.271 1.66-1.492 1.307 1.449a.28.28 0 00.394.02l.415-.375a.28.28 0 00.02-.395l-1.307-1.449 1.66-1.492 2.052 2.28c.103.114.28.122.395.02l.414-.375a.28.28 0 00.02-.395l-2.053-2.28 2.075-1.866 3.731 4.144-14.93 13.444z" />
  </symbol>
  <symbol viewBox="0 0 24 24" id="stroke-scissors" xmlns="http://www.w3.org/2000/svg">
    <path d="M6.857 21a3.857 3.857 0 003.191-6.025l1.954-1.953 7.133 7.127a1.286 1.286 0 001.818 0 .185.185 0 00.047-.113.185.185 0 00-.047-.114L13.025 12l7.928-7.922A.185.185 0 0021 3.964a.185.185 0 00-.047-.113 1.286 1.286 0 00-1.818 0l-7.133 7.127-1.954-1.953a3.857 3.857 0 10-1.023 1.022L10.98 12l-1.954 1.953A3.857 3.857 0 106.857 21zm0-11.571a2.574 2.574 0 01-2.571-2.572 2.573 2.573 0 012.571-2.571 2.574 2.574 0 012.572 2.571 2.575 2.575 0 01-2.572 2.572zm0 10.285a2.573 2.573 0 01-2.571-2.571 2.574 2.574 0 012.571-2.572 2.575 2.575 0 012.572 2.572 2.574 2.574 0 01-2.572 2.571z" />
  </symbol>
  <symbol viewBox="0 0 24 24" id="stroke-share" xmlns="http://www.w3.org/2000/svg">
    <path d="M17.144 22C19.273 22 21 20.32 21 18.25c-.004-2.07-1.731-3.75-3.86-3.75a3.89 3.89 0 00-2.884 1.262l-3.837-2.332a3.66 3.66 0 000-2.86l3.837-2.332A3.892 3.892 0 0017.14 9.5c2.129 0 3.856-1.68 3.856-3.75 0-2.07-1.727-3.75-3.856-3.75-2.13 0-3.857 1.68-3.857 3.75 0 .508.105.988.29 1.43L9.736 9.512a3.875 3.875 0 00-2.88-1.262C4.727 8.25 3 9.93 3 12c0 2.07 1.727 3.75 3.856 3.75a3.89 3.89 0 002.884-1.262l3.837 2.332c-.19.442-.29.922-.29 1.43 0 2.07 1.728 3.75 3.857 3.75zM17.14 8.25c-1.418 0-2.571-1.121-2.571-2.5s1.153-2.5 2.57-2.5c1.419 0 2.572 1.121 2.572 2.5s-1.153 2.5-2.571 2.5zM6.856 14.5c-1.418 0-2.57-1.121-2.57-2.5s1.152-2.5 2.57-2.5 2.571 1.121 2.571 2.5-1.153 2.5-2.57 2.5zm10.284 6.25c-1.418 0-2.571-1.121-2.571-2.5s1.153-2.5 2.57-2.5c1.419 0 2.572 1.121 2.572 2.5s-1.153 2.5-2.571 2.5z" />
  </symbol>
  <symbol viewBox="0 0 24 24" id="stroke-star" xmlns="http://www.w3.org/2000/svg">
    <path fill="#262626" fill-rule="evenodd" d="M6.137 23.824L12 20.604l5.863 3.22c1.04.572 2.284-.347 2.082-1.58l-1.122-6.819 4.742-4.827c.852-.867.381-2.381-.794-2.56l-6.554-.998-2.93-6.205a1.41 1.41 0 00-2.574 0L7.783 7.04l-6.553 1C.054 8.217-.417 9.73.435 10.598l4.742 4.827-1.122 6.82c-.202 1.232 1.041 2.156 2.082 1.58zm-.664-1.326l1.247-7.593L1.436 9.52l7.298-1.106L12 1.5l3.266 6.914 7.298 1.106-5.28 5.38 1.248 7.593L12 18.913l-6.527 3.585z" />
  </symbol>
  <symbol viewBox="0 0 24 24" id="stroke-tailor" xmlns="http://www.w3.org/2000/svg">
    <path d="M21.531 20.895c.26 0 .469-.215.469-.48v-.32a.474.474 0 00-.469-.478h-6.88l6.8-6.953a1.948 1.948 0 000-2.711L15.2 3.562a1.844 1.844 0 00-2.652 0l-10 10.225a1.95 1.95 0 000 2.712l3.75 3.834c.303.31.897.562 1.326.562H21.53zM16.01 16.42L8.875 9.126l4.558-4.66c.244-.25.64-.25.884 0l6.25 6.39a.65.65 0 010 .904l-4.558 4.661zm-3.382 3.196H7.623a.702.702 0 01-.44-.188l-3.75-3.834a.65.65 0 010-.904l4.558-4.66 7.134 7.294-2.058 2.104a.702.702 0 01-.44.188z" />
  </symbol>
  <symbol viewBox="0 0 24 24" id="stroke-warning" xmlns="http://www.w3.org/2000/svg">
    <path d="M12 3.29c4.783 0 8.71 3.874 8.71 8.71 0 4.81-3.896 8.71-8.71 8.71A8.708 8.708 0 013.29 12 8.71 8.71 0 0112 3.29zM12 2C6.478 2 2 6.48 2 12c0 5.524 4.478 10 10 10s10-4.476 10-10c0-5.52-4.478-10-10-10zm-.463 4.839a.485.485 0 00-.484.504l.282 6.774c.011.26.225.464.484.464h.362c.26 0 .473-.205.483-.464l.283-6.774a.485.485 0 00-.484-.504h-.926zM12 15.387a1.13 1.13 0 110 2.259 1.13 1.13 0 010-2.259z" />
  </symbol>
  <symbol viewBox="0 0 20 20" id="trash" xmlns="http://www.w3.org/2000/svg">
    <path fill="#56575B" fill-rule="evenodd" d="M14.97 18.333c.838 0 1.518-.7 1.518-1.562V4.79h.759c.14 0 .253-.116.253-.26v-.52a.257.257 0 00-.253-.261h-3.289l-1.062-1.458c-.252-.345-.796-.625-1.214-.625h-2.53c-.42 0-.963.28-1.215.625L6.875 3.75H3.586a.257.257 0 00-.253.26v.521c0 .144.114.26.253.26h.76v11.98c0 .862.68 1.562 1.517 1.562h9.107zM12.693 3.75H8.14l.607-.833a.569.569 0 01.405-.209h2.53c.139 0 .32.094.404.209l.607.833zm2.277 13.542H5.863a.514.514 0 01-.506-.521V4.79h10.12v11.98c0 .287-.227.52-.507.52zm-1.77-1.563a.256.256 0 00.252-.26V6.615a.256.256 0 00-.253-.26h-.506a.256.256 0 00-.253.26v8.854c0 .144.114.26.253.26h.506zm-5.06 0c.14 0 .253-.116.253-.26V6.615a.256.256 0 00-.253-.26h-.506a.256.256 0 00-.253.26v8.854c0 .144.113.26.253.26h.506zm2.53 0c.14 0 .253-.116.253-.26V6.615a.257.257 0 00-.253-.26h-.506a.256.256 0 00-.253.26v8.854c0 .144.113.26.253.26h.506z" />
  </symbol>
  <symbol viewBox="0 0 61 38" id="visa-light-large" xmlns="http://www.w3.org/2000/svg">
    <g fill="none">
      <rect width="60.129" height="38" fill="#DFE3E8" rx="4" />
      <path fill="#2A2A6C" d="M29.89 13.526L27.383 24.51h-3.007l2.506-10.984h3.006zm12.6 7.124l1.579-4.121.914 4.12H42.49zm3.345 3.895h2.781l-2.43-10.985H43.68c-.55.005-1.045.324-1.252.808l-4.497 10.177h3.156l.614-1.64h3.77l.364 1.64zm-7.817-3.563c.013-2.957-4.196-3.17-4.196-4.358 0-.392.4-.807 1.252-.914a5.884 5.884 0 012.957.487l.526-2.376a8.466 8.466 0 00-2.806-.486c-2.956 0-5.01 1.496-5.01 3.633 0 1.58 1.49 2.458 2.617 2.981 1.128.523 1.566.89 1.554 1.366 0 .736-.927 1.068-1.792 1.08a6.541 6.541 0 01-3.056-.712l-.539 2.375a9.418 9.418 0 003.332.582c3.144 0 5.211-1.473 5.224-3.753M25.668 13.49l-4.86 10.984h-3.27L15.145 15.7a1.19 1.19 0 00-.714-.962 12.806 12.806 0 00-2.956-.926l.075-.321h5.098c.69-.003 1.28.47 1.39 1.116l1.253 6.353 3.12-7.469h3.257z" />
    </g>
  </symbol>
  <symbol viewBox="0 0 32 34" id="youtube" xmlns="http://www.w3.org/2000/svg">
    <path d="M25.377 25.893c1.032-.295 1.845-1.128 2.122-2.232.481-1.922.5-5.847.501-6.158v-.04c0-.31-.02-4.236-.501-6.158-.277-1.104-1.09-1.974-2.122-2.269-1.778-.51-8.64-.535-9.322-.536h-.11c-.681.001-7.544.027-9.322.536-1.032.295-1.846 1.165-2.122 2.27-.471 1.88-.5 5.684-.501 6.133v.088c.002.45.03 4.252.501 6.134.276 1.104 1.09 1.937 2.122 2.232 1.76.504 8.497.535 9.299.537h.156c.802-.002 7.54-.033 9.299-.537zm-11.832-4.619v-7.583l6.273 3.792-6.273 3.791z" />
  </symbol>
</svg>